<svg xmlns="http://www.w3.org/2000/svg" width="650.507" height="476.339" viewBox="0 0 650.507 476.339">
  <g id="_2672333" data-name="2672333" transform="translate(-15.7 -85.3)">
    <g id="Group_366" data-name="Group 366" transform="translate(37.745 109.07)">
      <path id="Path_184" data-name="Path 184" d="M280.32,180.665c-21.9-79.6-120.734-105.292-177.452-45.767a21.579,21.579,0,0,0-2.387,2.667C19.2,225.87,57.663,443.472,227.112,498.645S572.89,453.019,582.858,363.03s-68.369-118.348-189.665-93.078C324.542,284.131,293.938,230.222,280.32,180.665Z" transform="translate(-20.043 -102.232)" fill="#bbe2f2"/>
      <path id="Path_185" data-name="Path 185" d="M323.4,168.509c-22.743,3.65-28.92,23.726-11.512,38.045,5.756,4.773,14.039,8.564,25.832,10.529,44.924,7.441,68.65-12.354,50.68-38.186C377.445,163.174,345.857,164.858,323.4,168.509Z" transform="translate(77.832 -76.458)" fill="#bbe2f2"/>
      <path id="Path_186" data-name="Path 186" d="M70.989,285.575c-14.039-18.11-34.816-14.039-38.888,8.143-1.4,7.3-.842,16.425,3.089,27.8,14.881,42.959,43.8,54.331,57.7,26.253C101.593,330.359,85.027,303.685,70.989,285.575Z" transform="translate(-31.403 -32.779)" fill="#bbe2f2"/>
      <path id="Path_187" data-name="Path 187" d="M443.789,302.983c-2.106,10.95,6.879,18.672,17.127,14.46,3.369-1.4,6.739-4.071,9.827-8.844,11.512-17.97,5.756-33.413-10.389-31.868C450.387,277.854,445.754,292.173,443.789,302.983Z" transform="translate(135.031 -31.797)" fill="#bbe2f2"/>
      <path id="Path_188" data-name="Path 188" d="M410.252,222.794c10.95,2.246,18.812-6.6,14.741-16.987a22.12,22.12,0,0,0-8.564-9.968c-17.829-11.933-33.272-6.318-32.009,9.827C385.263,215.634,399.442,220.548,410.252,222.794Z" transform="translate(111.148 -67.007)" fill="#bbe2f2"/>
      <path id="Path_189" data-name="Path 189" d="M218.693,140.4c8.564,7.019,19.795,2.808,20.918-8.283.421-3.65-.421-7.862-3.089-12.775-10.389-18.672-26.674-20.918-32.991-6.037C199.741,122.572,210.129,133.523,218.693,140.4Z" transform="translate(37.793 -101.699)" fill="#bbe2f2"/>
    </g>
    <g id="Group_376" data-name="Group 376" transform="translate(15.7 170.894)">
      <path id="Path_190" data-name="Path 190" d="M486.113,346.007c17.268-17.408,30.464-37.063,17.408-40.151s-35.238,31.166-39.028,62.333L460.7,378.437c3.229-22.743-4.633-50.259-16-51.382s-4.492,16.847,4.492,32.149c6.879,11.652,8.7,20.918,9.125,25.691l-18.11,48.575c4.914-35.94-7.3-79.46-25.41-81.285-17.97-1.825-7.019,26.674,7.16,50.961,10.81,18.391,13.618,32.851,14.46,40.572l-3.65,9.687c1.544.842,3.229,1.825,4.773,2.667l21.62-57.84a72.579,72.579,0,0,1,19.514-9.968c16.847-5.756,33.693-14.741,24.428-21.339-8-5.756-26.955,5.194-40.011,20.778l7.441-20.076C473.9,361.731,478.673,353.448,486.113,346.007Z" transform="translate(141.706 -81.893)" fill="#1c31b5"/>
      <path id="Path_191" data-name="Path 191" d="M88.248,183.375c2.246-21.058.562-41.274-9.968-36.361-10.529,5.054-6.739,39.87,7.441,62.894l2.948,8.985C78.562,201.906,58.486,187.587,50.2,192.921c-8.143,5.335,6.037,13.618,20.356,19.093,10.81,4.212,16.987,9.406,19.935,12.354l14.039,42.4C88.389,240.092,56.661,217.49,43.6,225.913s9.546,21.76,32.289,30.324c17.127,6.6,26.955,14.741,31.447,19.374l2.808,8.423,4.633-.842-16.706-50.54a60.834,60.834,0,0,1,7.721-17.127c8.283-12.916,14.741-28.078,4.914-27.516-8.423.562-15.3,18.11-15.724,35.518l-5.616-17.268C88.529,200.643,87.266,192.5,88.248,183.375Z" transform="translate(-5.981 -146.269)" fill="#1c31b5"/>
      <g id="Group_369" data-name="Group 369" transform="translate(509.752 164.438)">
        <g id="Group_367" data-name="Group 367">
          <path id="Path_192" data-name="Path 192" d="M380.064,420.916c.281,1.123.421,2.527.7,3.931h0c3.089,14.46,10.81,38.186,27.937,42.819,0,0-9.406-48.855,24.007-61.631s29.762-24.849,27.8-46.469-9.266-25.691,13.9-45.907S493.077,263.4,493.077,263.4s-21.9,34.4-45.346,35.1c-23.445.842-27.516,20.778-26.533,35.659s-18.952,16.566-29.622,25.13c-10.81,8.564-12.775,53.909-12.775,53.909S379.221,416.283,380.064,420.916Z" transform="translate(-378.8 -263.4)" fill="#009cf8"/>
        </g>
        <g id="Group_368" data-name="Group 368" transform="translate(1.264 43.942)">
          <path id="Path_193" data-name="Path 193" d="M379.7,408.275c.281,1.123.421,2.527.7,3.931a72.554,72.554,0,0,1,8.985-18.11C396.827,383,407.5,373.879,416.9,370.229c15.162-5.756,22.462-20.5,23.866-48.013.842-16,17.549-25.41,17.689-25.551a1.091,1.091,0,0,0,.421-1.4.973.973,0,0,0-1.4-.421c-.7.421-17.829,10.108-18.812,27.235-1.4,26.674-8.283,40.853-22.6,46.328-9.968,3.791-20.637,12.916-28.5,24.568A73.651,73.651,0,0,0,379.7,408.275Z" transform="translate(-379.7 -294.7)" fill="#006bde"/>
        </g>
      </g>
      <g id="Group_372" data-name="Group 372" transform="translate(0 234.071)">
        <g id="Group_370" data-name="Group 370">
          <path id="Path_194" data-name="Path 194" d="M157.072,447.352h23.445c-12.635-2.106-44.082-15.583-46.89-42.678-3.51-34.255-15.724-33.834-36.361-37.484S71.013,369.436,57.957,342.9C44.9,316.229,15.7,313,15.7,313s26.534,28.92,21.479,50.961,12.495,30.886,26.674,33.553c14.039,2.808,10.67,21.76,16.145,33.834,2.387,5.616,12.495,11.371,22.6,15.864h54.471Z" transform="translate(-15.7 -313)" fill="#006bde"/>
        </g>
        <g id="Group_371" data-name="Group 371" transform="translate(32.394 42.502)">
          <path id="Path_195" data-name="Path 195" d="M96.791,401.291c.983,10.248,6.879,22.462,15.724,32.711.281.421.7.7.983,1.123H116.3c-.7-.842-1.544-1.544-2.106-2.387-8.423-9.687-14.32-21.9-15.3-31.587-1.544-15.443-13.477-26.112-38.888-34.255-14.741-4.773-19.374-22.743-19.374-22.883a.937.937,0,1,0-1.825.421c.14.842,4.914,19.093,20.637,24.287C83.875,376.723,95.387,386.69,96.791,401.291Z" transform="translate(-38.775 -343.274)" fill="#1c31b5"/>
        </g>
      </g>
      <g id="Group_375" data-name="Group 375" transform="translate(14.749 62.797)">
        <g id="Group_373" data-name="Group 373">
          <path id="Path_196" data-name="Path 196" d="M165.463,433.03c-.562,1.685-1.123,3.51-1.685,5.335h0c-6.739,20.216-20.356,54.19-45.626,58.261,0,0,20.076-69.633-25.691-92.937s-38.607-40.011-32.57-70.475,17.268-35.238-12.775-67.527C17.213,233.257,28.163,191,28.163,191s25.972,52.365,59.244,57.138,36.08,33.834,32.43,54.892,24.428,26.533,38.467,40.432,9.968,78.9,9.968,78.9S167.288,426.573,165.463,433.03Z" transform="translate(-26.206 -191)" fill="#009cf8"/>
        </g>
        <g id="Group_374" data-name="Group 374" transform="translate(43.275 68.132)">
          <path id="Path_197" data-name="Path 197" d="M153.013,413.429c-.562,1.685-1.123,3.51-1.685,5.335a102.473,102.473,0,0,0-9.968-27.1c-8.985-16.987-22.6-31.587-35.659-38.186-20.637-10.389-28.92-32.711-26.674-72.16,1.264-22.883-21.2-39.028-21.339-39.169a1.421,1.421,0,1,1,1.544-2.387c.983.7,24.006,17.127,22.6,41.7-2.106,38.186,5.616,59.665,25.13,69.492,13.758,6.879,27.516,21.62,36.922,39.449A102.084,102.084,0,0,1,153.013,413.429Z" transform="translate(-57.031 -239.531)" fill="#006bde"/>
        </g>
      </g>
    </g>
    <g id="Group_411" data-name="Group 411" transform="translate(71.423 150.616)">
      <g id="Group_377" data-name="Group 377" transform="translate(116.113 327.633)">
        <path id="Path_198" data-name="Path 198" d="M138.381,409.844c.14,5.335.14,10.81.281,16.426h51.1c.14-6.037.14-11.933.281-17.408.14-14.881.14-27.1.14-34.676v-8.423L138.1,365.2v11.793C138.1,385.135,138.1,396.928,138.381,409.844Z" transform="translate(-138.1 -365.2)" fill="#18315b"/>
        <path id="Path_199" data-name="Path 199" d="M138.1,374.448c0,8.143.14,19.935.281,32.851a245.937,245.937,0,0,0,51.523-1.123c.14-14.881.14-27.1.14-34.676Z" transform="translate(-138.1 -362.655)" fill="#000b29"/>
      </g>
      <g id="Group_378" data-name="Group 378" transform="translate(51.956 327.633)">
        <path id="Path_200" data-name="Path 200" d="M92.54,398.191c0,8.283.14,17.829.281,28.078h51.1c.14-6.037.281-11.933.281-17.549.14-12.214.281-23.164.281-31.026V365.2l-52.084.562v14.881C92.4,385.416,92.4,391.312,92.54,398.191Z" transform="translate(-92.4 -365.2)" fill="#18315b"/>
        <path id="Path_201" data-name="Path 201" d="M92.4,376.908V394.6a312.937,312.937,0,0,0,51.663,10.529c.14-12.214.281-23.164.281-31.026Z" transform="translate(-92.4 -361.605)" fill="#000b29"/>
      </g>
      <g id="Group_387" data-name="Group 387" transform="translate(72.064 0)">
        <path id="Path_202" data-name="Path 202" d="M172.192,185.559s8.143-7.862,8.143-15.724S175,164.36,172.192,157.06s-11.231-11.652-16-10.81c-4.633.842-14.46-17.268-27.657-14.039-13.337,3.229-12.073,20.216-17.829,22.743s-4.071,12.635-1.123,14.881,4.352,11.512,6.037,11.372C117.159,180.926,172.192,185.559,172.192,185.559Z" transform="translate(-106.663 -131.825)" fill="#18315b"/>
        <g id="Group_381" data-name="Group 381" transform="translate(0 50.034)">
          <path id="Path_203" data-name="Path 203" d="M116.939,170.884s-5.194-6.879-8.985-1.123,1.544,22.462,10.95,18.391Z" transform="translate(-106.723 -167.464)" fill="#f97853"/>
          <g id="Group_379" data-name="Group 379" transform="translate(2.161 6.175)">
            <path id="Path_204" data-name="Path 204" d="M116.317,181.181c-.281,0-.7-.281-.7-.562-1.4-5.194-6.879-7.3-6.879-7.3a.756.756,0,1,1,.562-1.4c.281.14,6.177,2.387,7.862,8.423a.8.8,0,0,1-.562.983A.435.435,0,0,0,116.317,181.181Z" transform="translate(-108.262 -171.863)" fill="#ea5143"/>
          </g>
          <g id="Group_380" data-name="Group 380" transform="translate(3.954 9.123)">
            <path id="Path_205" data-name="Path 205" d="M110.326,177.665a.516.516,0,0,1-.421-.14.88.88,0,0,1-.281-1.123,7.028,7.028,0,0,1,2.948-2.387.756.756,0,0,1,.562,1.4,5.446,5.446,0,0,0-2.246,1.825C110.888,177.525,110.607,177.665,110.326,177.665Z" transform="translate(-109.54 -173.962)" fill="#ea5143"/>
          </g>
        </g>
        <g id="Group_385" data-name="Group 385" transform="translate(61.457 50.034)">
          <path id="Path_206" data-name="Path 206" d="M152.465,170.884s5.194-6.879,8.985-1.123-1.544,22.462-10.95,18.391Z" transform="translate(-150.5 -167.464)" fill="#f97853"/>
          <g id="Group_382" data-name="Group 382" transform="translate(1.087 6.175)">
            <path id="Path_207" data-name="Path 207" d="M152.153,181.181c.281,0,.7-.281.7-.562,1.4-5.194,6.879-7.3,6.879-7.3a.756.756,0,1,0-.562-1.4c-.281.14-6.177,2.387-7.862,8.423a.8.8,0,0,0,.562.983A.435.435,0,0,1,152.153,181.181Z" transform="translate(-151.274 -171.863)" fill="#ea5143"/>
          </g>
          <g id="Group_384" data-name="Group 384" transform="translate(4.159 9.123)">
            <g id="Group_383" data-name="Group 383">
              <path id="Path_208" data-name="Path 208" d="M156.744,177.665a.516.516,0,0,0,.421-.14.88.88,0,0,0,.281-1.123,7.028,7.028,0,0,0-2.948-2.387.756.756,0,0,0-.562,1.4,5.446,5.446,0,0,1,2.246,1.825C156.183,177.525,156.463,177.665,156.744,177.665Z" transform="translate(-153.462 -173.962)" fill="#ea5143"/>
            </g>
          </g>
        </g>
        <path id="Path_209" data-name="Path 209" d="M149.028,192.3v16.706s-4.914,8.564-11.652,9.125-12.775-7.3-12.775-7.3V193.563Z" transform="translate(-99.503 -107.4)" fill="#ffa681"/>
        <path id="Path_210" data-name="Path 210" d="M149.028,192.3v7.441c-4.492,5.054-12.495,6.318-24.428,4.492v-10.81Z" transform="translate(-99.503 -107.4)" fill="#f97853"/>
        <path id="Path_211" data-name="Path 211" d="M171.806,167.911a178.277,178.277,0,0,1-2.106,21.058c-.281,1.685-.7,3.089-.983,4.492-3.51,12.354-12.354,33.413-36.922,24.568-10.81-3.931-15.864-16-18.11-28.359A127.985,127.985,0,0,1,112,166.788a17.663,17.663,0,0,1,8.844-14.881c14.46-8.283,29.9-5.194,40.011-1.264A18.285,18.285,0,0,1,171.806,167.911Z" transform="translate(-104.592 -125.829)" fill="#ffa681"/>
        <path id="Path_212" data-name="Path 212" d="M113,177.723s2.387,14.179,4.633,19.374,8.423,6.177,10.67,10.529c3.369,6.318,8.283,11.231,16.566,8.143,6.879-2.527,6.6-6.037,10.389-8.7,6.6-4.633,9.827-9.827,10.108-14.039s3.51-16.145,3.51-16.145l-3.51-.281a75.289,75.289,0,0,1-5.054,8.845c-2.948-6.6-17.408-1.825-17.408-1.825l-2.808.842-2.808-.842s-14.6-4.633-17.408,2.246a23.189,23.189,0,0,1-3.79-8.985Zm27.516,8.985c16.425-2.808,13.477,6.879,13.477,7.16h0a13.2,13.2,0,0,1-3.369,2.527c-6.458,3.51-7.019,2.948-9.546,3.089a19.47,19.47,0,0,1-9.687-2.667,23.373,23.373,0,0,1-4.633-3.51C126.618,193.447,124.091,184.6,140.516,186.708Z" transform="translate(-104.188 -113.741)" fill="#18315b"/>
        <path id="Path_213" data-name="Path 213" d="M126.712,172.429c0,1.825-.983,3.229-2.106,3.229s-2.106-1.4-2.106-3.229.983-3.229,2.106-3.229C125.869,169.2,126.712,170.6,126.712,172.429Z" transform="translate(-100.351 -116.73)" fill="#18315b"/>
        <path id="Path_214" data-name="Path 214" d="M144.112,172.429c0,1.825-.983,3.229-2.106,3.229s-2.106-1.4-2.106-3.229.983-3.229,2.106-3.229C143.269,169.2,144.112,170.6,144.112,172.429Z" transform="translate(-93.324 -116.73)" fill="#18315b"/>
        <path id="Path_215" data-name="Path 215" d="M151.522,164.383s-8.423-3.369-15.022-.562l.7,3.65s9.546-.842,14.46,1.123A6.249,6.249,0,0,0,151.522,164.383Z" transform="translate(-94.697 -119.353)" fill="#18315b"/>
        <path id="Path_216" data-name="Path 216" d="M118.621,164.383s8.564-3.369,15.162-.562l-.7,3.65s-9.687-.842-14.46,1.123A5.463,5.463,0,0,1,118.621,164.383Z" transform="translate(-102.088 -119.353)" fill="#18315b"/>
        <g id="Group_386" data-name="Group 386" transform="translate(34.104 53.734)">
          <path id="Path_217" data-name="Path 217" d="M134.082,185.543a9.926,9.926,0,0,0,2.808-.562.756.756,0,0,0-.562-1.4c-.7.281-2.387.7-3.229.281a1.5,1.5,0,0,1-.421-.7c-.281-2.808.421-12.073.421-12.214a.775.775,0,1,0-1.544-.14c0,.421-.842,9.546-.421,12.495a2.616,2.616,0,0,0,1.123,1.965A3.853,3.853,0,0,0,134.082,185.543Z" transform="translate(-131.016 -170.1)" fill="#f97853"/>
        </g>
        <path id="Path_218" data-name="Path 218" d="M126,185c.562,3.089,2.667,8.564,9.406,8.564s8.7-5.054,9.266-8.564Z" transform="translate(-98.938 -110.348)" fill="#fff"/>
        <path id="Path_219" data-name="Path 219" d="M171.806,167.871a178.278,178.278,0,0,1-2.106,21.058l-3.51-.281s.842-5.475,1.263-8.985,1.123-10.248-1.965-11.091-1.263-8.423-5.475-11.793-13.618-6.177-19.795-2.387-13.337,1.685-16.145,2.387c-2.948.7-6.739,4.633-5.756,8.283,1.123,3.65-2.106,5.9-2.948,9.827-.7,3.79,1.685,14.179,1.685,14.179l-3.369.7A127.986,127.986,0,0,1,112,166.888a17.663,17.663,0,0,1,8.844-14.881c14.46-8.283,29.9-5.194,40.011-1.263A17.957,17.957,0,0,1,171.806,167.871Z" transform="translate(-104.592 -125.789)" fill="#18315b"/>
      </g>
      <g id="Group_408" data-name="Group 408" transform="translate(41.097 101.747)">
        <g id="Group_388" data-name="Group 388">
          <path id="Path_220" data-name="Path 220" d="M222.436,455.737a273.255,273.255,0,0,1-48.153,7.862c-.7,0-1.4.14-2.246.14-2.246.14-4.352.281-6.6.421a285.072,285.072,0,0,1-32.851-.562c-2.246-.14-4.352-.421-6.6-.562a10.835,10.835,0,0,1-2.106-.281,294.145,294.145,0,0,1-39.168-7.019c-.14-12.073,0-50.119.7-91.253.14-4.914.14-9.968.281-15.022,1.123-54.331,3.369-109.5,7.441-115.119,3.79-5.335,15.443-12.073,26.534-18.11.7-.421,1.263-.7,1.965-1.123,2.527-1.4,4.914-2.667,7.16-3.931,4.914-2.667,9.125-5.054,11.793-6.879v1.544s6.037,7.862,12.635,7.3c6.177-.562,10.81-7.581,11.652-8.844a130.725,130.725,0,0,0,14.179,8c1.685.842,3.369,1.825,5.194,2.667.7.281,1.263.7,1.965.983,12.214,6.458,25.551,13.9,29.482,19.233a9.049,9.049,0,0,1,.842,1.965c2.387,8,3.79,34.4,4.633,66.264v.281c0,1.264.14,2.527.14,3.931v.562c.281,11.231.562,23.024.7,34.816v4.212c0,2.387,0,4.633.14,7.019v5.194C222.716,402.669,222.576,443.1,222.436,455.737Z" transform="translate(-84.665 -204.3)" fill="#006bde"/>
        </g>
        <g id="Group_389" data-name="Group 389" transform="translate(118.344 74.994)">
          <path id="Path_221" data-name="Path 221" d="M187.406,286.472c-3.931-6.318-8-12.775-11.933-18.391h0c-1.685-2.387-3.229-4.633-4.773-6.739a.137.137,0,0,0-.14-.14,20.63,20.63,0,0,0-1.4-1.825.435.435,0,0,1-.14-.281h0a.941.941,0,0,1,.421-1.123,1.112,1.112,0,0,1,1.544.14c4.633,6.177,10.67,15.162,16.425,24.287v.281A34.139,34.139,0,0,0,187.406,286.472Z" transform="translate(-168.962 -257.719)" fill="#264cbe"/>
        </g>
        <path id="Path_222" data-name="Path 222" d="M179.21,225.9s24.147,44.363,39.028,66.825c0,0,8.423-7.721,19.374-17.97,11.793-11.231,28.078-29.9,28.078-29.9l8.985,10.67s-36.361,65.421-52.646,73.7S175.7,279.248,175.7,279.248Z" transform="translate(-47.897 -195.576)" fill="#006bde"/>
        <g id="Group_390" data-name="Group 390" transform="translate(9.595 154.287)">
          <path id="Path_223" data-name="Path 223" d="M110.733,365.021h0a1.107,1.107,0,0,1-1.123-1.123c1.263-35.8-17.268-47.451-17.549-47.592a1.132,1.132,0,1,1,1.123-1.965c.14.14,5.054,3.089,9.827,10.81,4.352,7.019,9.406,19.374,8.7,38.747A1,1,0,0,1,110.733,365.021Z" transform="translate(-91.5 -314.2)" fill="#264cbe"/>
        </g>
        <g id="Group_391" data-name="Group 391" transform="translate(106.806 110.74)">
          <path id="Path_224" data-name="Path 224" d="M161.946,343.856a1.191,1.191,0,0,1-1.123-.983c-.562-7.581,1.965-13.056,5.054-20.076.983-2.106,1.825-4.212,2.808-6.458,6.037-14.741,3.089-31.728,2.948-31.868a1.074,1.074,0,0,1,2.106-.421c.14.7,3.229,17.689-3.089,33.132-.983,2.387-1.965,4.492-2.808,6.6-3.089,6.879-5.335,11.933-4.914,18.953a.926.926,0,0,1-.983,1.123Z" transform="translate(-160.744 -283.181)" fill="#264cbe"/>
        </g>
        <g id="Group_404" data-name="Group 404" transform="translate(44.271 0.421)">
          <path id="Path_225" data-name="Path 225" d="M116.2,211.2c.421,3.51,1.123,8.143,1.965,13.337.281,1.544.421,3.089.7,4.773.7,5.335,1.544,11.231,2.246,17.127.14,1.544.421,3.229.562,4.773.562,5.9.983,11.652,1.264,16.987,0,1.685.14,3.229,0,4.773a86.762,86.762,0,0,1-.7,11.091c-.281,2.106-.562,4.071-.842,6.037-.14,1.685-.421,3.229-.562,4.773A148.482,148.482,0,0,0,119.85,312v4.773c0,6.037.421,11.793.842,17.127.14,1.544.281,3.229.421,4.773.7,5.9,1.4,11.512,2.246,16.987.281,1.544.421,3.229.7,4.773.281,2.527.7,5.054.842,7.581.281,2.667.421,5.9.562,9.406v4.773c0,5.194-.14,11.091-.421,17.128,0,1.544-.14,3.229-.281,4.773-.281,5.616-.562,11.372-.983,17.128-.14,1.544-.281,3.229-.421,4.773-.421,5.9-.983,11.793-1.4,17.127-.14,1.685-.281,3.229-.421,4.773-.562,5.9-1.123,11.231-1.544,15.443a285.059,285.059,0,0,0,32.851.562c.281-4.492.983-11.652,1.685-20.216.14-1.544.281-3.229.421-4.773.421-5.475.842-11.231.983-16.987,0-1.544.14-3.229.14-4.773.14-5.9.14-11.652-.14-16.987-.14-1.685-.14-3.229-.281-4.773s-.281-3.229-.421-4.633a93.771,93.771,0,0,1-.7-12.354c0-1.544,0-3.229.14-4.773.281-5.615.842-11.091,1.544-16.987.14-1.544.421-3.229.562-4.773.7-5.194,1.263-10.81,1.825-16.987.14-1.544.281-3.229.421-4.773.421-5.194.562-10.81.7-16.987v-4.773c0-5.335-.281-10.95-.7-17.127,0-.562-.14-1.123-.14-1.685a24.852,24.852,0,0,1-.14-3.229c-.281-5.616-.14-11.372.14-16.987.14-1.544.14-3.229.281-4.773.421-5.756,1.123-11.372,1.825-16.847.281-1.685.421-3.229.7-4.773.842-5.9,1.825-11.512,2.808-16.566.281-1.685.562-3.229.842-4.773.562-3.369,1.123-6.458,1.544-8.985-6.037-3.229-11.231-6.037-14.179-8-.842,1.263-5.475,8.423-11.652,8.844-6.739.562-12.635-7.3-12.635-7.3V204.6C125.466,206.144,121.114,208.531,116.2,211.2Z" transform="translate(-116.2 -204.6)" fill="#fff"/>
          <g id="Group_403" data-name="Group 403" transform="translate(1.965 15.546)">
            <g id="Group_392" data-name="Group 392">
              <path id="Path_226" data-name="Path 226" d="M117.6,220.063c.281,1.544.421,3.089.7,4.773a82.189,82.189,0,0,0,21.62-2.808,58.8,58.8,0,0,1,23.585-.562c.281-1.685.562-3.229.842-4.773a61.251,61.251,0,0,0-25.551.7C130.375,219.361,123.356,220.343,117.6,220.063Z" transform="translate(-117.6 -215.674)" fill="#e3e3e3"/>
            </g>
            <g id="Group_393" data-name="Group 393" transform="translate(2.948 22.072)">
              <path id="Path_227" data-name="Path 227" d="M119.7,235.613c.14,1.544.421,3.229.562,4.773a95.419,95.419,0,0,0,18.952-2.667A60.008,60.008,0,0,1,159.43,236.6c.281-1.685.421-3.229.7-4.773a63.22,63.22,0,0,0-21.9,1.264A104.708,104.708,0,0,1,119.7,235.613Z" transform="translate(-119.7 -231.396)" fill="#e3e3e3"/>
            </g>
            <g id="Group_394" data-name="Group 394" transform="translate(4.633 43.943)">
              <path id="Path_228" data-name="Path 228" d="M120.9,251.082c0,1.685.14,3.229,0,4.773a106.411,106.411,0,0,0,17.689-2.667,58.2,58.2,0,0,1,17.97-1.264c.14-1.544.14-3.229.281-4.773a68.094,68.094,0,0,0-19.374,1.4A89.979,89.979,0,0,1,120.9,251.082Z" transform="translate(-120.9 -246.974)" fill="#e3e3e3"/>
            </g>
            <g id="Group_395" data-name="Group 395" transform="translate(2.527 65.706)">
              <path id="Path_229" data-name="Path 229" d="M119.4,271.635c5.616,0,12.073-.983,19.795-2.808a55.826,55.826,0,0,1,18.251-1.263c0-.562-.14-1.123-.14-1.685a24.848,24.848,0,0,1-.14-3.229,60.865,60.865,0,0,0-18.952,1.544,89.336,89.336,0,0,1-18.251,2.667C119.681,268.406,119.54,269.95,119.4,271.635Z" transform="translate(-119.4 -262.476)" fill="#e3e3e3"/>
            </g>
            <g id="Group_396" data-name="Group 396" transform="translate(1.404 87.517)">
              <path id="Path_230" data-name="Path 230" d="M118.6,287.12a89.647,89.647,0,0,0,20.918-2.808,56.391,56.391,0,0,1,18.952-1.264v-4.773a63.686,63.686,0,0,0-20.076,1.4,87.674,87.674,0,0,1-19.795,2.667Z" transform="translate(-118.6 -278.013)" fill="#e3e3e3"/>
            </g>
            <g id="Group_397" data-name="Group 397" transform="translate(2.387 109.504)">
              <path id="Path_231" data-name="Path 231" d="M119.3,297.922c.14,1.544.281,3.229.421,4.773a93,93,0,0,0,19.514-2.808,53.957,53.957,0,0,1,17.97-1.263c.14-1.544.281-3.229.421-4.773a68.093,68.093,0,0,0-19.374,1.4A80.274,80.274,0,0,1,119.3,297.922Z" transform="translate(-119.3 -293.674)" fill="#e3e3e3"/>
            </g>
            <g id="Group_398" data-name="Group 398" transform="translate(5.054 131.359)">
              <path id="Path_232" data-name="Path 232" d="M121.2,313.395c.281,1.544.421,3.229.7,4.773a92.7,92.7,0,0,0,16.706-2.667,55.95,55.95,0,0,1,15.583-1.4c.14-1.544.421-3.229.562-4.773a62.16,62.16,0,0,0-17.127,1.544A92.293,92.293,0,0,1,121.2,313.395Z" transform="translate(-121.2 -309.242)" fill="#e3e3e3"/>
            </g>
            <g id="Group_399" data-name="Group 399" transform="translate(7.16 153.201)">
              <path id="Path_233" data-name="Path 233" d="M122.7,328.871v4.773a121.541,121.541,0,0,0,15.162-2.527,62.83,62.83,0,0,1,13.9-1.544c0-1.544,0-3.229.14-4.773a64.8,64.8,0,0,0-15.022,1.685A87.819,87.819,0,0,1,122.7,328.871Z" transform="translate(-122.7 -324.8)" fill="#e3e3e3"/>
            </g>
            <g id="Group_400" data-name="Group 400" transform="translate(6.598 175.357)">
              <path id="Path_234" data-name="Path 234" d="M122.3,349.311a133.5,133.5,0,0,0,15.724-2.527,54.468,54.468,0,0,1,15.3-1.4c-.14-1.685-.14-3.229-.281-4.773a61.352,61.352,0,0,0-16.145,1.685,88.3,88.3,0,0,1-14.46,2.387C122.44,346.083,122.44,347.627,122.3,349.311Z" transform="translate(-122.3 -340.582)" fill="#e3e3e3"/>
            </g>
            <g id="Group_401" data-name="Group 401" transform="translate(5.194 196.977)">
              <path id="Path_235" data-name="Path 235" d="M121.3,364.992a96.75,96.75,0,0,0,17.127-2.667,60.2,60.2,0,0,1,15.3-1.544c0-1.544.14-3.229.14-4.773a63.392,63.392,0,0,0-16.426,1.685,92.813,92.813,0,0,1-15.724,2.527C121.581,361.763,121.44,363.448,121.3,364.992Z" transform="translate(-121.3 -355.982)" fill="#e3e3e3"/>
            </g>
            <g id="Group_402" data-name="Group 402" transform="translate(3.369 218.903)">
              <path id="Path_236" data-name="Path 236" d="M120,380.585a95.421,95.421,0,0,0,18.952-2.667,61.949,61.949,0,0,1,13.9-1.544c.14-1.544.281-3.229.421-4.773a67.948,67.948,0,0,0-15.3,1.685,103.568,103.568,0,0,1-17.408,2.667C120.281,377.5,120.14,379.041,120,380.585Z" transform="translate(-120 -371.6)" fill="#e3e3e3"/>
            </g>
          </g>
        </g>
        <g id="Group_407" data-name="Group 407" transform="translate(35.146 10.95)">
          <g id="Group_405" data-name="Group 405" transform="translate(52.225)">
            <path id="Path_237" data-name="Path 237" d="M146.9,460.729c.7,0,1.4-.14,2.246-.14,4.352-25.27,1.825-62.473.842-73.845-.983-11.793.842-27.1,5.054-41.7,3.229-11.371,1.263-37.9-.281-59.1-.421-5.9-.842-11.652-1.123-16.285-.842-15.022,4.633-42.678,7.581-56.577a12.835,12.835,0,0,0-1.965-.983c-2.948,13.758-8.564,41.976-7.721,57.7.281,4.633.7,10.248,1.123,16.285,1.544,21.058,3.51,47.311.421,58.4-4.212,14.881-6.037,30.464-5.054,42.538C148.865,398.256,151.252,435.6,146.9,460.729Z" transform="translate(-146.9 -212.1)" fill="#264cbe"/>
          </g>
          <g id="Group_406" data-name="Group 406" transform="translate(0 0.14)">
            <path id="Path_238" data-name="Path 238" d="M117.843,357.643c2.527,15.583,1.685,25.691.842,37.343-.281,3.791-.562,7.721-.842,12.073-.7,13.618-2.948,40.853-3.931,52.646.7.14,1.4.14,2.106.281.983-11.793,3.369-39.169,3.931-52.786.281-4.352.562-8.143.842-11.933.983-11.793,1.685-22.041-.842-37.9-.562-3.369-1.123-6.879-1.685-10.248-2.808-16.987-5.9-34.536-4.492-42.959.281-2.106.842-4.352,1.264-6.879,1.965-10.108,4.212-22.743,3.51-33.693-.7-10.81-5.194-40.292-6.879-51.382-.7.421-1.263.7-1.965,1.123,1.825,11.652,6.037,39.87,6.739,50.4.7,10.67-1.685,23.164-3.51,33.132-.421,2.527-.842,4.773-1.264,6.879-1.4,8.7,1.4,25.691,4.492,43.661C116.719,350.764,117.281,354.133,117.843,357.643Z" transform="translate(-109.7 -212.2)" fill="#264cbe"/>
          </g>
        </g>
      </g>
      <g id="Group_410" data-name="Group 410" transform="translate(0 133.054)">
        <path id="Path_239" data-name="Path 239" d="M97.941,238.644s-21.62,72.3-27.1,97.991c-5.335,25.691-5.756,79.32-5.756,79.32S55.684,435.61,55.4,444.314c-.281,9.266,4.633,16.706,4.071,22.883-.562,6.037,6.879,2.808,4.773-9.546s3.79-23.585,6.458-23.164c2.527.421-2.106,13.477.14,18.251s5.194-4.492,8.143-10.108c3.089-5.756,2.808-18.391,1.544-27.516-1.4-8.985,15.022-63.877,15.022-79.741l20.778-70.054C116.332,265.459,109.453,236.117,97.941,238.644Z" transform="translate(-55.392 -221.798)" fill="#ffa681"/>
        <path id="Path_240" data-name="Path 240" d="M116.618,268.436c-.7,4.633-3.369,12.635-6.6,22.6h0l-.842,2.527v.14c-.842,2.527-1.685,5.054-2.527,7.862h0C103,312.658,98.929,325.434,95.56,338.63c-1.123,4.492-2.246,8.985-3.229,13.618-1.263,5.756-2.246,11.512-3.089,17.127-2.808,20.356-8,46.048-8,46.048-7.721,3.229-19.935-.983-19.935-.983s-.281-37.063,1.4-51.382c2.106-17.829,4.914-30.464,8.283-44.924,9.266-40.011,25.691-79.179,30.184-89.568a10.191,10.191,0,0,0,.842-1.965h3.931C113.109,231.373,118.584,255.941,116.618,268.436Z" transform="translate(-53.01 -226.6)" fill="#006bde"/>
        <path id="Path_241" data-name="Path 241" d="M60.6,355.1l.562,8.564s11.512,3.791,20.216,1.123l2.246-7.581C75.341,357.487,67.619,357.346,60.6,355.1Z" transform="translate(-53.288 -174.7)" fill="#009cf8"/>
        <g id="Group_409" data-name="Group 409" transform="translate(39.18 63.56)">
          <path id="Path_242" data-name="Path 242" d="M100.989,272.753h0v.421c-.281.7-.562,1.4-.842,2.246v.14c-.842,2.387-1.685,5.054-2.527,7.862h0A416.172,416.172,0,0,0,86.389,327.5c0-2.387,0-4.633.14-7.019-1.123,4.492-2.246,8.985-3.229,13.618a161.417,161.417,0,0,1,3.369-17.829c3.369-14.6,8.423-32.57,12.495-43.661a1.159,1.159,0,0,1,1.4-.7A1.2,1.2,0,0,1,100.989,272.753Z" transform="translate(-83.3 -271.874)" fill="#264cbe"/>
        </g>
      </g>
    </g>
    <g id="Group_448" data-name="Group 448" transform="translate(357.126 149.168)">
      <g id="Group_415" data-name="Group 415" transform="translate(156.534 350.42)">
        <g id="Group_413" data-name="Group 413" transform="translate(0 0.14)">
          <g id="Group_412" data-name="Group 412">
            <path id="Path_243" data-name="Path 243" d="M372.787,420.09h51.242c-.14-3.51-.281-7.019-.562-10.108-.842-17.549-1.685-29.482-1.685-29.482l-41.7,1.825-3.51.14-6.177.281s.562,10.67,1.544,26.253C372.225,412.509,372.506,416.159,372.787,420.09Z" transform="translate(-370.4 -380.5)" fill="#18315b"/>
          </g>
        </g>
        <path id="Path_244" data-name="Path 244" d="M376.677,382.506l-6.177.281s.562,10.67,1.544,26.253a386.533,386.533,0,0,0,51.382.842c-.842-17.549-1.685-29.482-1.685-29.482l-41.7,1.825Z" transform="translate(-370.36 -380.4)" fill="#000b29"/>
        <g id="Group_414" data-name="Group 414" transform="translate(6.317 1.965)">
          <path id="Path_245" data-name="Path 245" d="M380.516,419.565c-.983-16.285-1.685-30.043-2.106-37.765l-3.51.14c.421,7.721,1.123,21.479,2.106,37.624Z" transform="translate(-374.9 -381.8)" fill="#000b29"/>
        </g>
      </g>
      <g id="Group_419" data-name="Group 419" transform="translate(92.516 350.558)">
        <g id="Group_417" data-name="Group 417" transform="translate(0 0.002)">
          <g id="Group_416" data-name="Group 416">
            <path id="Path_246" data-name="Path 246" d="M376.182,420.09c.281-4.352.562-8.564.7-12.354.842-14.881,1.4-24.989,1.4-24.989l-6.6-.281-3.51-.14L327.046,380.5s-.421,7.16-1.123,18.391c-.281,6.037-.7,13.2-1.123,21.2Z" transform="translate(-324.8 -380.5)" fill="#18315b"/>
          </g>
        </g>
        <path id="Path_247" data-name="Path 247" d="M325.7,398.892a452.269,452.269,0,0,0,50.821,8.844c.842-14.881,1.4-24.989,1.4-24.989l-6.6-.281-3.51-.14L326.683,380.5C326.683,380.36,326.262,387.52,325.7,398.892Z" transform="translate(-324.436 -380.499)" fill="#000b29"/>
        <g id="Group_418" data-name="Group 418" transform="translate(41.274 1.827)">
          <path id="Path_248" data-name="Path 248" d="M357.71,419.565c.983-16.145,1.685-30.043,2.106-37.624l-3.51-.14c-.421,7.721-1.123,21.62-2.106,37.765Z" transform="translate(-354.2 -381.8)" fill="#000b29"/>
        </g>
      </g>
      <g id="Group_426" data-name="Group 426" transform="translate(87.428 104.037)">
        <g id="Group_421" data-name="Group 421">
          <g id="Group_420" data-name="Group 420">
            <path id="Path_249" data-name="Path 249" d="M449.1,459.285a247.973,247.973,0,0,1-31.307,6.458c-3.65.562-7.3.983-10.81,1.263-4.914.421-9.827.7-14.6.842a200.43,200.43,0,0,1-24.287-.562,248.658,248.658,0,0,1-46.89-8.143c-.14-14.6.14-66.825,1.123-117.225,0-2.246.14-4.492.14-6.739v-2.948c0-1.544.14-3.229.14-4.773.14-3.229.14-6.458.281-9.687,0-1.965.14-3.79.14-5.616v-1.123c0-1.263.14-2.527.14-3.65h0v-1.123c0-1.123.14-2.246.14-3.369a18.812,18.812,0,0,1,.14-2.808c1.263-33.974,2.948-60.788,5.475-64.579,4.352-6.458,18.953-14.881,30.745-21.9,4.212-2.527,9.266-5.054,12.073-6.879,4.212,3.369,7.16,6.458,13.337,6.177,6.879-.281,8.7-4.352,11.231-8,1.544.983,5.756,4.352,7.862,5.616q2.738,1.685,5.9,3.369c3.229,1.825,6.6,3.79,9.968,5.756,4.914,2.948,9.827,5.9,13.9,8.845s7.3,5.616,8.844,8c2.246,3.51,3.79,25.832,4.773,55.173a22.747,22.747,0,0,0,.14,3.089v.421c0,1.123.14,2.106.14,3.229.14,3.369.14,6.739.281,10.108v3.931c0,1.4,0,2.808.14,4.212v.842c.14,3.791.14,7.581.281,11.512v3.369C449.525,385.58,449.244,443.7,449.1,459.285Z" transform="translate(-321.176 -204.9)" fill="#006bde"/>
          </g>
        </g>
        <path id="Path_250" data-name="Path 250" d="M448.35,304.947l-16.566,16.706L416.341,306.07,400.9,321.653,385.456,305.93l-15.443,15.724L354.43,305.93l-15.583,15.724L322,304.666c0-1.544.14-3.229.14-4.773.14-3.229.14-6.458.281-9.687L338.847,273.5l15.583,15.724L370.013,273.5l15.443,15.724L400.9,273.5l15.443,15.583L431.784,273.5l16.285,16.426c.14,3.79.14,7.581.281,11.512A14.66,14.66,0,0,0,448.35,304.947Z" transform="translate(-320.843 -177.193)" fill="#264cbe"/>
        <g id="Group_422" data-name="Group 422" transform="translate(25.05 175.372)">
          <path id="Path_251" data-name="Path 251" d="M412.977,368.54h0c-22.181-.14-40.994-10.108-52.927-18.531a122.216,122.216,0,0,1-20.778-18.391,1.1,1.1,0,1,1,1.685-1.4,118.6,118.6,0,0,0,20.5,18.11c11.652,8.283,30.184,18.11,51.663,18.11a1.107,1.107,0,0,1,1.123,1.123A1.5,1.5,0,0,1,412.977,368.54Z" transform="translate(-339.019 -329.819)" fill="#264cbe"/>
        </g>
        <g id="Group_423" data-name="Group 423" transform="translate(48.553 180.344)">
          <path id="Path_252" data-name="Path 252" d="M392.317,354.053c-18.812-3.65-35.518-18.11-36.22-18.812a1.1,1.1,0,0,1,1.4-1.685c.14.14,19.795,17.127,39.73,18.952a1.055,1.055,0,0,1-.14,2.106A29.366,29.366,0,0,1,392.317,354.053Z" transform="translate(-355.761 -333.361)" fill="#264cbe"/>
        </g>
        <g id="Group_424" data-name="Group 424" transform="translate(46.475 11.963)">
          <path id="Path_253" data-name="Path 253" d="M355.291,238.8a.939.939,0,0,1-.983-.842,1.093,1.093,0,0,1,.842-1.264c26.955-5.054,35.1-22.462,35.1-22.6a1.069,1.069,0,1,1,1.965.842c-.281.7-8.7,18.531-36.642,23.866Z" transform="translate(-354.281 -213.422)" fill="#264cbe"/>
        </g>
        <g id="Group_425" data-name="Group 425" transform="translate(1.999 82.725)">
          <path id="Path_254" data-name="Path 254" d="M335.095,265.194h0a.49.49,0,0,1-.14.281c-.421.7-.842,1.263-1.263,1.965v.14c-1.4,2.246-2.808,4.492-4.212,7.019h0c-2.246,3.931-4.633,8.283-6.879,12.635,0-1.263.14-2.527.14-3.65h0v-1.123c3.65-6.879,7.441-13.337,10.529-18.11a.875.875,0,0,1,1.4-.281A.941.941,0,0,1,335.095,265.194Z" transform="translate(-322.6 -263.826)" fill="#264cbe"/>
        </g>
      </g>
      <g id="Group_429" data-name="Group 429" transform="translate(183.029)">
        <path id="Path_255" data-name="Path 255" d="M432.864,267.4S467.4,256.3,477.508,233.7c2.948-6.6-21.339-73-21.339-73l-11.793.562s3.369,23.024,5.335,36.08c1.685,10.81,4.352,23.585,5.335,27.8a9.088,9.088,0,0,0,.281,1.4c-.562.14-1.123.14-1.685.281C437.5,230.052,417,240.581,417,240.581Z" transform="translate(-378.074 -118.715)" fill="#ffa681"/>
        <g id="Group_428" data-name="Group 428" transform="translate(75.567 106.424)">
          <g id="Group_427" data-name="Group 427">
            <path id="Path_256" data-name="Path 256" d="M453.489,214.462a1.027,1.027,0,0,0,1.544-.281,1.014,1.014,0,0,0-.281-1.544A99.555,99.555,0,0,0,444.5,206.6a9.081,9.081,0,0,0,.281,1.4c-.562.14-1.123.14-1.685.281A77.942,77.942,0,0,1,453.489,214.462Z" transform="translate(-443.1 -206.6)" fill="#f97853"/>
          </g>
        </g>
        <path id="Path_257" data-name="Path 257" d="M391.276,217.544s-10.389,24.428,16.145,38.045c18.391,9.406,60.227-15.162,60.227-15.162L452.767,208.7C452.767,208.84,414.441,224.564,391.276,217.544Z" transform="translate(-389.273 -99.328)" fill="#006bde"/>
        <path id="Path_258" data-name="Path 258" d="M446.926,135.295c-.983.7-.842,5.194-.421,9.406a.516.516,0,0,0-.421.14c-1.263-5.616-3.65-15.3-5.756-13.477-1.4,1.263.421,9.546,1.685,14.46-.281.14-.562.14-.842.281-1.544-5.9-5.054-17.268-7.3-15.022-1.544,1.4,1.4,11.512,2.948,16.566-.281.14-.421.14-.7.281-1.544-4.914-4.773-14.32-7.16-12.073-2.106,1.965,3.791,16.145,3.791,16.145h0l1.544,5.475s-1.825.842-4.633-2.387-6.318-3.79-3.931.842c2.667,5.335,6.6,9.125,8.423,12.775,1.685,3.79,7.3,4.914,7.3,4.914l10.95-.562s2.106-18.672-1.965-27.516h0C450.015,140.349,448.751,134.031,446.926,135.295Z" transform="translate(-374.869 -130.794)" fill="#ffa681"/>
      </g>
      <g id="Group_446" data-name="Group 446" transform="translate(112.71 13.626)">
        <path id="Path_259" data-name="Path 259" d="M343.5,174.334c0,18.812,11.512,31.728,30.324,31.728s31.868-13.9,31.868-32.711a39.347,39.347,0,0,0-2.527-14.32c-.14-.281-.14-.562-.281-.7-.14-.421-.421-.983-.562-1.4a15.344,15.344,0,0,0-1.123-2.106c-4.914-8.845-13.618-14.32-25.41-14.32C353.327,140.36,343.5,155.522,343.5,174.334Z" transform="translate(-337.441 -140.499)" fill="#18315b"/>
        <g id="Group_432" data-name="Group 432" transform="translate(0 38.306)">
          <path id="Path_260" data-name="Path 260" d="M349.6,171.316s-5.194-7.019-9.125-1.263,1.544,22.743,11.091,18.531Z" transform="translate(-339.184 -167.785)" fill="#f97853"/>
          <g id="Group_430" data-name="Group 430" transform="translate(2.075 6.286)">
            <path id="Path_261" data-name="Path 261" d="M348.858,181.721c-.281,0-.7-.281-.7-.562-1.4-5.194-6.879-7.3-7.019-7.441a.756.756,0,0,1,.562-1.4c.281.14,6.177,2.387,7.862,8.423a.8.8,0,0,1-.562.983Z" transform="translate(-340.663 -172.262)" fill="#ea5143"/>
          </g>
          <g id="Group_431" data-name="Group 431" transform="translate(4.009 9.374)">
            <path id="Path_262" data-name="Path 262" d="M342.826,178.165a.516.516,0,0,1-.421-.14.88.88,0,0,1-.281-1.123,7.028,7.028,0,0,1,2.948-2.387.848.848,0,1,1,.7,1.544,5.446,5.446,0,0,0-2.246,1.825A1.072,1.072,0,0,1,342.826,178.165Z" transform="translate(-342.04 -174.462)" fill="#ea5143"/>
          </g>
        </g>
        <g id="Group_437" data-name="Group 437" transform="translate(62.074 38.306)">
          <path id="Path_263" data-name="Path 263" d="M385.365,171.316s5.194-7.019,9.125-1.263S392.946,192.8,383.4,188.584Z" transform="translate(-383.4 -167.785)" fill="#f97853"/>
          <g id="Group_433" data-name="Group 433" transform="translate(1.367 6.286)">
            <path id="Path_264" data-name="Path 264" d="M385.112,181.721c.281,0,.7-.281.7-.562,1.4-5.194,6.879-7.3,7.019-7.441a.756.756,0,0,0-.562-1.4c-.281.14-6.177,2.387-7.862,8.423a.8.8,0,0,0,.562.983Z" transform="translate(-384.374 -172.262)" fill="#ea5143"/>
          </g>
          <g id="Group_436" data-name="Group 436" transform="translate(4.159 9.374)">
            <g id="Group_435" data-name="Group 435">
              <g id="Group_434" data-name="Group 434">
                <path id="Path_265" data-name="Path 265" d="M389.784,178.165a.516.516,0,0,0,.421-.14.88.88,0,0,0,.281-1.123,7.028,7.028,0,0,0-2.948-2.387.848.848,0,0,0-.7,1.544,5.446,5.446,0,0,1,2.246,1.825A1.072,1.072,0,0,0,389.784,178.165Z" transform="translate(-386.362 -174.462)" fill="#ea5143"/>
              </g>
            </g>
          </g>
        </g>
        <path id="Path_266" data-name="Path 266" d="M381.868,193v16.847s-5.054,8.564-11.793,9.125-12.775-7.441-12.775-7.441V194.123Z" transform="translate(-331.867 -119.295)" fill="#ffa681"/>
        <path id="Path_267" data-name="Path 267" d="M381.908,193v7.441c-4.633,5.054-12.635,6.318-24.708,4.633v-10.81Z" transform="translate(-331.908 -119.295)" fill="#f97853"/>
        <path id="Path_268" data-name="Path 268" d="M405,168.251a157.219,157.219,0,0,1-2.246,21.339,29.917,29.917,0,0,1-1.123,4.492c-3.51,12.495-12.495,33.834-37.343,24.849-10.95-3.931-16.145-16.145-18.391-28.639a118.1,118.1,0,0,1-1.685-23.164,17.724,17.724,0,0,1,8.985-15.022c14.741-8.283,30.184-5.194,40.432-1.264A17.893,17.893,0,0,1,405,168.251Z" transform="translate(-337.168 -137.926)" fill="#ffa681"/>
        <path id="Path_269" data-name="Path 269" d="M359.312,172.829c0,1.825-.983,3.229-2.106,3.229s-2.106-1.4-2.106-3.229.983-3.229,2.106-3.229S359.312,171,359.312,172.829Z" transform="translate(-332.756 -128.746)" fill="#18315b"/>
        <path id="Path_270" data-name="Path 270" d="M376.712,172.831c0,1.825-.983,3.229-2.106,3.229s-2.106-1.4-2.106-3.229.983-3.229,2.106-3.229C375.729,169.462,376.712,171.006,376.712,172.831Z" transform="translate(-325.728 -128.748)" fill="#18315b"/>
        <path id="Path_271" data-name="Path 271" d="M382.152,164.262s-6.6-2.527-11.652-.421l.562,2.808s7.441-.562,11.091.842A4.284,4.284,0,0,0,382.152,164.262Z" transform="translate(-326.536 -131.41)" fill="#18315b"/>
        <path id="Path_272" data-name="Path 272" d="M351.791,164.262s6.6-2.527,11.652-.421l-.562,2.808s-7.441-.562-11.091.842A4.284,4.284,0,0,1,351.791,164.262Z" transform="translate(-334.22 -131.41)" fill="#18315b"/>
        <g id="Group_438" data-name="Group 438" transform="translate(34.58 42.398)">
          <path id="Path_273" data-name="Path 273" d="M366.742,186.143a13.248,13.248,0,0,0,2.948-.562.756.756,0,0,0-.562-1.4c-.7.281-2.527.7-3.229.281a1.5,1.5,0,0,1-.421-.7c-.281-2.808.421-12.214.421-12.214a.775.775,0,0,0-1.544-.14c0,.421-.842,9.687-.421,12.635A2.616,2.616,0,0,0,365.057,186C365.478,186,366.04,186.143,366.742,186.143Z" transform="translate(-363.816 -170.7)" fill="#f97853"/>
        </g>
        <path id="Path_274" data-name="Path 274" d="M358.2,184.6c1.263,4.633,5.054,9.266,10.389,9.266,5.194,0,8.985-4.633,10.389-9.266Z" transform="translate(-331.504 -122.688)" fill="#fff"/>
        <g id="Group_439" data-name="Group 439" transform="translate(32.446 73.559)">
          <path id="Path_275" data-name="Path 275" d="M366.513,195.569a7.461,7.461,0,0,0,3.931-1.123.819.819,0,1,0-.842-1.4,6.7,6.7,0,0,1-3.089.842,6.516,6.516,0,0,1-2.948-.842.819.819,0,1,0-.842,1.4A8.273,8.273,0,0,0,366.513,195.569Z" transform="translate(-362.296 -192.896)" fill="#f97853"/>
        </g>
        <path id="Path_276" data-name="Path 276" d="M404.089,179.823h-3.65c.421-3.65.983-10.108-1.965-10.95-9.406-2.948,2.808-9.546-1.4-12.916s-14.881-1.965-22.322-2.106c-7.441-.281-19.374-.14-22.322.562s-1.264,5.475-.281,9.266c1.123,3.79-3.51,7.862-4.352,11.793a15.912,15.912,0,0,0,0,4.492H344.7a99.365,99.365,0,0,1-.281-12.635,17.724,17.724,0,0,1,8.985-15.022c14.741-8.283,30.184-5.194,40.432-1.264a17.535,17.535,0,0,1,11.231,17.268C404.791,171.821,404.511,175.892,404.089,179.823Z" transform="translate(-337.102 -137.846)" fill="#18315b"/>
        <g id="Group_445" data-name="Group 445" transform="translate(5.601 35.239)">
          <g id="Group_440" data-name="Group 440" transform="translate(9.302)">
            <path id="Path_277" data-name="Path 277" d="M358.925,183.851a9.125,9.125,0,1,1,9.125-9.125A9.107,9.107,0,0,1,358.925,183.851Zm0-16.706a7.721,7.721,0,1,0,7.721,7.721A7.7,7.7,0,0,0,358.925,167.144Z" transform="translate(-349.8 -165.6)" fill="#fff"/>
          </g>
          <g id="Group_441" data-name="Group 441" transform="translate(34.151)">
            <path id="Path_278" data-name="Path 278" d="M376.625,183.851a9.125,9.125,0,1,1,9.125-9.125A9.107,9.107,0,0,1,376.625,183.851Zm0-16.706a7.721,7.721,0,0,0,0,15.443,7.612,7.612,0,0,0,7.721-7.721A7.79,7.79,0,0,0,376.625,167.144Z" transform="translate(-367.5 -165.6)" fill="#fff"/>
          </g>
          <g id="Group_442" data-name="Group 442" transform="translate(0 1.687)">
            <path id="Path_279" data-name="Path 279" d="M354.161,171.432a.844.844,0,0,1-.562-.14h0s-4.212-4.071-9.546-2.808c-.421.14-.7-.14-.842-.562s.14-.7.562-.842c6.177-1.4,10.67,2.948,10.95,3.089a.679.679,0,0,1,0,.983C354.442,171.292,354.3,171.432,354.161,171.432Z" transform="translate(-343.174 -166.802)" fill="#fff"/>
          </g>
          <g id="Group_443" data-name="Group 443" transform="translate(50.283 1.536)">
            <path id="Path_280" data-name="Path 280" d="M379.706,171.476a.729.729,0,0,1-.562-.281.694.694,0,0,1,.14-.983c.281-.14,6.739-4.352,12.214-3.369a.716.716,0,0,1-.281,1.4c-4.914-.842-11.091,3.229-11.091,3.229Z" transform="translate(-378.991 -166.694)" fill="#fff"/>
          </g>
          <g id="Group_444" data-name="Group 444" transform="translate(25.868 3.369)">
            <path id="Path_281" data-name="Path 281" d="M370.444,171.79s-1.685-2.246-3.931-2.246-3.65,2.246-3.791,2.246l-1.123-.842c.14-.14,1.965-2.948,4.914-2.948s4.914,2.808,5.054,2.948Z" transform="translate(-361.6 -168)" fill="#fff"/>
          </g>
        </g>
      </g>
      <g id="Group_447" data-name="Group 447" transform="translate(0 134.501)">
        <path id="Path_282" data-name="Path 282" d="M357.874,278.825s-9.546,18.531-20.778,33.132a82.244,82.244,0,0,1-10.248,11.371c-5.475,5.054-10.95,7.581-15.3,5.335-16.285-8.283-52.646-73.7-52.646-73.7l8.985-10.67s16.145,18.672,28.078,29.9c10.95,10.248,19.374,17.97,19.374,17.97,1.544-2.246,3.089-4.773,4.773-7.441,1.825-2.808,3.65-5.9,5.475-8.844,13.618-22.322,28.78-49.276,28.78-49.276Z" transform="translate(-258.9 -226.6)" fill="#ffa681"/>
        <path id="Path_283" data-name="Path 283" d="M319.527,297.84a82.25,82.25,0,0,1-10.248,11.372L302.4,270.744c1.825-2.808,3.65-5.9,5.475-8.844Z" transform="translate(-241.331 -212.343)" fill="#f97853"/>
        <path id="Path_284" data-name="Path 284" d="M336.211,226.8,303.5,278.182l10.95,45.205,27.1-44.082S344.774,249.262,336.211,226.8Z" transform="translate(-240.887 -226.519)" fill="#006bde"/>
      </g>
    </g>
    <g id="Group_471" data-name="Group 471" transform="translate(272.706 154.747)">
      <g id="Group_454" data-name="Group 454" transform="translate(4.117 94.948)">
        <path id="Path_285" data-name="Path 285" d="M336.193,439.6c-2.387-12.916-4.633-27.516-6.739-41.7-.421-3.089-.842-6.177-1.4-9.266-1.685-11.793-3.229-22.883-4.352-32.009-.421-3.51-.842-6.739-1.263-9.546-1.123-9.125-1.825-14.881-1.825-14.881l-51.663,1.965-51.8-1.965s-1.4,11.231-3.51,27.657c-.421,2.948-.842,6.177-1.263,9.406-1.123,8.564-2.527,18.11-3.931,27.8v.421c-.421,3.089-.842,6.037-1.4,9.125v.14h0c-1.123,7.3-2.246,14.741-3.51,21.76-.421,2.948-.983,5.756-1.4,8.564L201.7,439.6Z" transform="translate(-201.7 -149.975)" fill="#006bde"/>
        <g id="Group_449" data-name="Group 449" transform="translate(0.562 192.614)">
          <path id="Path_286" data-name="Path 286" d="M224.027,344.514a4.914,4.914,0,1,1-4.914-4.914A4.974,4.974,0,0,1,224.027,344.514Z" transform="translate(-197.213 -339.6)" fill="#264cbe"/>
          <path id="Path_287" data-name="Path 287" d="M232.627,357.914A4.914,4.914,0,1,1,227.714,353,4.974,4.974,0,0,1,232.627,357.914Z" transform="translate(-193.74 -334.188)" fill="#264cbe"/>
          <path id="Path_288" data-name="Path 288" d="M249.627,351.014a4.914,4.914,0,1,1-4.914-4.914A5.07,5.07,0,0,1,249.627,351.014Z" transform="translate(-186.873 -336.975)" fill="#264cbe"/>
          <path id="Path_289" data-name="Path 289" d="M222.927,372.214a4.914,4.914,0,1,1-4.914-4.914A4.974,4.974,0,0,1,222.927,372.214Z" transform="translate(-197.657 -328.412)" fill="#264cbe"/>
          <path id="Path_290" data-name="Path 290" d="M244.027,370.714a4.914,4.914,0,1,1-4.914-4.914A4.974,4.974,0,0,1,244.027,370.714Z" transform="translate(-189.135 -329.018)" fill="#264cbe"/>
          <path id="Path_291" data-name="Path 291" d="M213.852,356.333a4.756,4.756,0,0,1-4.352,4.773c.421-3.229.842-6.458,1.263-9.406A5.308,5.308,0,0,1,213.852,356.333Z" transform="translate(-199.111 -334.713)" fill="#264cbe"/>
          <path id="Path_292" data-name="Path 292" d="M278.527,391.114a4.914,4.914,0,1,1-4.914-4.914A4.974,4.974,0,0,1,278.527,391.114Z" transform="translate(-175.201 -320.779)" fill="#264cbe"/>
          <path id="Path_293" data-name="Path 293" d="M276.827,372.214a4.914,4.914,0,1,1-4.914-4.914A4.883,4.883,0,0,1,276.827,372.214Z" transform="translate(-175.888 -328.412)" fill="#264cbe"/>
          <path id="Path_294" data-name="Path 294" d="M294.679,381.706a4.484,4.484,0,0,1-1.965.421,4.914,4.914,0,1,1,0-9.827h.562C293.837,375.389,294.258,378.477,294.679,381.706Z" transform="translate(-167.487 -326.393)" fill="#264cbe"/>
          <path id="Path_295" data-name="Path 295" d="M280.327,404.914A4.914,4.914,0,1,1,275.414,400,5.071,5.071,0,0,1,280.327,404.914Z" transform="translate(-174.474 -315.205)" fill="#264cbe"/>
          <path id="Path_296" data-name="Path 296" d="M295.127,399.414a4.914,4.914,0,1,1-4.914-4.914A4.883,4.883,0,0,1,295.127,399.414Z" transform="translate(-168.496 -317.427)" fill="#264cbe"/>
          <path id="Path_297" data-name="Path 297" d="M263.843,409.306a4.92,4.92,0,0,0-4.071-2.106,5.118,5.118,0,0,0-4.071,2.106Z" transform="translate(-180.452 -312.297)" fill="#264cbe"/>
          <path id="Path_298" data-name="Path 298" d="M220.627,394.114a4.914,4.914,0,1,1-4.914-4.914A4.974,4.974,0,0,1,220.627,394.114Z" transform="translate(-198.586 -319.567)" fill="#264cbe"/>
          <path id="Path_299" data-name="Path 299" d="M209.812,383.092a4.737,4.737,0,0,1-4.212,4.773v-.14c.421-3.089.983-6.037,1.4-9.125A4.707,4.707,0,0,1,209.812,383.092Z" transform="translate(-200.686 -323.848)" fill="#264cbe"/>
          <path id="Path_300" data-name="Path 300" d="M205.61,404.631a4.682,4.682,0,0,1-3.51,4.633c.562-2.808.983-5.616,1.4-8.564A5.065,5.065,0,0,1,205.61,404.631Z" transform="translate(-202.1 -314.922)" fill="#264cbe"/>
          <path id="Path_301" data-name="Path 301" d="M229.227,406.414a4.914,4.914,0,1,1-4.914-4.914A4.974,4.974,0,0,1,229.227,406.414Z" transform="translate(-195.113 -314.599)" fill="#264cbe"/>
          <path id="Path_302" data-name="Path 302" d="M247.527,403.714a4.914,4.914,0,1,1-4.914-4.914A4.974,4.974,0,0,1,247.527,403.714Z" transform="translate(-187.722 -315.69)" fill="#264cbe"/>
          <path id="Path_303" data-name="Path 303" d="M234.427,386.614a4.914,4.914,0,1,1-4.914-4.914A4.974,4.974,0,0,1,234.427,386.614Z" transform="translate(-193.012 -322.596)" fill="#264cbe"/>
          <path id="Path_304" data-name="Path 304" d="M253.027,383.214a4.914,4.914,0,1,1-4.914-4.914A4.883,4.883,0,0,1,253.027,383.214Z" transform="translate(-185.5 -323.97)" fill="#264cbe"/>
          <path id="Path_305" data-name="Path 305" d="M261.427,364.914A4.914,4.914,0,1,1,256.514,360,4.883,4.883,0,0,1,261.427,364.914Z" transform="translate(-182.108 -331.361)" fill="#264cbe"/>
          <path id="Path_306" data-name="Path 306" d="M290.3,352.287a2.389,2.389,0,0,1-.983.14,4.918,4.918,0,0,1-.281-9.827Q289.665,347.022,290.3,352.287Z" transform="translate(-168.86 -338.388)" fill="#264cbe"/>
          <path id="Path_307" data-name="Path 307" d="M273.427,351.014a4.914,4.914,0,1,1-4.914-4.914A5.071,5.071,0,0,1,273.427,351.014Z" transform="translate(-177.261 -336.975)" fill="#264cbe"/>
          <path id="Path_308" data-name="Path 308" d="M286.027,363.414a4.914,4.914,0,1,1-4.914-4.914A4.974,4.974,0,0,1,286.027,363.414Z" transform="translate(-172.172 -331.966)" fill="#264cbe"/>
          <path id="Path_309" data-name="Path 309" d="M264.927,394.114a4.914,4.914,0,1,1-4.914-4.914A4.974,4.974,0,0,1,264.927,394.114Z" transform="translate(-180.694 -319.567)" fill="#264cbe"/>
        </g>
        <path id="Path_310" data-name="Path 310" d="M320.517,385.748c-27.235,17.829-77.214,16.425-108.661,0,2.948-18.672,7.019-37.343,6.037-62.333-.14-2.667-.281-5.475-.281-8.143-.14-2.387-.281-4.633-.421-7.019-2.667-41.415-9.827-75.248-6.318-79.6a32.747,32.747,0,0,1,7.16-6.037c1.264-.842,2.527-1.685,3.931-2.527,3.229-1.965,6.879-3.931,10.529-5.9,8.7-4.633,17.408-8.844,21.76-11.793,4.352,1.965,7.862,2.948,11.512,2.948h.562c3.79,0,7.16-.983,11.512-2.948,4.071,2.667,11.793,6.458,19.654,10.67a182.735,182.735,0,0,1,16.145,9.406,34.273,34.273,0,0,1,6.879,5.9c1.685,2.106.983,11.652-.421,25.691-1.4,13.9-3.65,32.149-4.914,52.225-.421,5.616-.7,11.371-.842,17.127C313.5,348.264,317.428,367.076,320.517,385.748Z" transform="translate(-198.378 -202.4)" fill="#009cf8"/>
        <g id="Group_450" data-name="Group 450" transform="translate(32.035 124.271)">
          <path id="Path_311" data-name="Path 311" d="M297.916,329.359h0c-21.9-.14-40.713-10.108-52.505-18.391a127.543,127.543,0,0,1-20.637-18.251,1.1,1.1,0,0,1,1.685-1.4,116.816,116.816,0,0,0,20.356,17.97c11.652,8.143,29.9,17.97,51.242,17.97a.935.935,0,0,1,.983,1.123A1.36,1.36,0,0,1,297.916,329.359Z" transform="translate(-224.519 -290.919)" fill="#006bde"/>
        </g>
        <g id="Group_451" data-name="Group 451" transform="translate(54.696 129.383)">
          <path id="Path_312" data-name="Path 312" d="M276.936,315.113c-18.672-3.65-35.238-17.97-35.94-18.672a1.1,1.1,0,0,1,1.4-1.685c.14.14,19.654,16.987,39.449,18.812a1.055,1.055,0,0,1-.14,2.106A26.13,26.13,0,0,1,276.936,315.113Z" transform="translate(-240.661 -294.561)" fill="#006bde"/>
        </g>
        <g id="Group_452" data-name="Group 452" transform="translate(62.305 28.168)">
          <path id="Path_313" data-name="Path 313" d="M247.091,247.644a.939.939,0,0,1-.983-.842,1.093,1.093,0,0,1,.842-1.263c26.674-5.054,34.816-22.322,34.816-22.462a1.069,1.069,0,0,1,1.965.842c-.281.7-8.564,18.391-36.361,23.585A.435.435,0,0,1,247.091,247.644Z" transform="translate(-246.081 -222.464)" fill="#006bde"/>
        </g>
        <path id="Path_314" data-name="Path 314" d="M291.181,212.929C285.846,225,272.79,237.5,255.8,234.689c-16.426-2.808-24.287-11.512-29.9-20.5,8.7-4.633,17.408-8.844,21.76-11.793,4.352,1.965,7.862,2.948,11.512,2.948h.562c3.79,0,7.16-.983,11.512-2.948C275.6,205.067,283.319,208.858,291.181,212.929Z" transform="translate(-191.926 -202.4)" fill="#ffa681"/>
        <g id="Group_453" data-name="Group 453" transform="translate(47.416 0.842)">
          <path id="Path_315" data-name="Path 315" d="M273.134,203a.906.906,0,0,0-.842.842c0,.7-.281,16.706-14.6,17.97-13.337,1.123-18.812-11.652-20.5-16.847a.933.933,0,0,0-.7-.562h-.281a.748.748,0,0,0-.7.983c1.825,5.475,7.581,18.672,21.2,18.11h1.123c15.864-1.4,16.145-19.374,16.145-19.514A.939.939,0,0,0,273.134,203Z" transform="translate(-235.475 -203)" fill="#fff"/>
        </g>
      </g>
      <g id="Group_464" data-name="Group 464" transform="translate(29.369 0)">
        <path id="Path_316" data-name="Path 316" d="M289.161,142.4s12.775,19.935,11.372,40.572c-1.4,20.778,1.825,44.644-16.706,43.521-18.531-.983-51.523,7.441-62.052-8.7C211.386,201.784,289.161,142.4,289.161,142.4Z" transform="translate(-219.229 -131.685)" fill="#18315b"/>
        <path id="Path_317" data-name="Path 317" d="M283.118,168.6s3.369,30.043-10.95,38.326c-14.179,8.283-24.568-.983-24.568-.983S277.643,163.97,283.118,168.6Z" transform="translate(-208.413 -121.246)" fill="#000b29"/>
        <g id="Group_463" data-name="Group 463" transform="translate(5.386 15.129)">
          <g id="Group_457" data-name="Group 457" transform="translate(0 28.668)">
            <path id="Path_318" data-name="Path 318" d="M233.739,169.384s-5.054-6.879-8.985-1.123c-3.79,5.616,1.544,22.322,10.95,18.251Z" transform="translate(-223.523 -165.964)" fill="#f97853"/>
            <g id="Group_455" data-name="Group 455" transform="translate(2.02 5.894)">
              <path id="Path_319" data-name="Path 319" d="M233.017,179.481c-.281,0-.7-.281-.7-.562-1.4-5.194-6.739-7.16-6.879-7.3a.756.756,0,0,1,.562-1.4c.281.14,6.177,2.387,7.721,8.283a.8.8,0,0,1-.562.983Z" transform="translate(-224.962 -170.162)" fill="#ea5143"/>
            </g>
            <g id="Group_456" data-name="Group 456" transform="translate(3.954 8.982)">
              <path id="Path_320" data-name="Path 320" d="M227.126,176.065a.516.516,0,0,1-.421-.14.88.88,0,0,1-.281-1.123,7.028,7.028,0,0,1,2.948-2.387.756.756,0,0,1,.562,1.4,5.446,5.446,0,0,0-2.246,1.825C227.547,175.925,227.407,176.065,227.126,176.065Z" transform="translate(-226.34 -172.362)" fill="#ea5143"/>
            </g>
          </g>
          <g id="Group_460" data-name="Group 460" transform="translate(60.896 28.668)">
            <path id="Path_321" data-name="Path 321" d="M268.865,169.384s5.054-6.879,8.985-1.123c3.791,5.616-1.544,22.322-10.95,18.251Z" transform="translate(-266.9 -165.964)" fill="#f97853"/>
            <g id="Group_458" data-name="Group 458" transform="translate(1.227 5.894)">
              <path id="Path_322" data-name="Path 322" d="M268.512,179.481c.281,0,.7-.281.7-.562,1.4-5.194,6.739-7.16,6.879-7.3a.756.756,0,0,0-.562-1.4c-.281.14-6.177,2.387-7.721,8.283a.8.8,0,0,0,.562.983Z" transform="translate(-267.774 -170.162)" fill="#ea5143"/>
            </g>
            <g id="Group_459" data-name="Group 459" transform="translate(4.159 8.982)">
              <path id="Path_323" data-name="Path 323" d="M273.144,176.065a.516.516,0,0,0,.421-.14.88.88,0,0,0,.281-1.123,7.029,7.029,0,0,0-2.948-2.387.756.756,0,0,0-.562,1.4,5.446,5.446,0,0,1,2.246,1.825C272.583,175.925,272.863,176.065,273.144,176.065Z" transform="translate(-269.862 -172.362)" fill="#ea5143"/>
            </g>
          </g>
          <path id="Path_324" data-name="Path 324" d="M265.487,190.6v16.566s-4.914,8.423-11.652,8.985-12.635-7.3-12.635-7.3V191.723Z" transform="translate(-216.384 -127.347)" fill="#ffa681"/>
          <path id="Path_325" data-name="Path 325" d="M265.487,190.6v7.3c-4.492,4.914-12.495,6.739-24.287,5.054V191.723Z" transform="translate(-216.384 -127.347)" fill="#f97853"/>
          <path id="Path_326" data-name="Path 326" d="M287.984,166.26a175.952,175.952,0,0,1-2.106,20.918c-.281,1.544-.7,3.089-.983,4.492-3.51,12.214-12.214,33.132-36.642,24.428-10.81-3.79-15.724-15.864-17.97-28.078a125.069,125.069,0,0,1-1.685-22.6,17.6,17.6,0,0,1,8.7-14.741c14.46-8.143,29.622-5.054,39.59-1.263A16.88,16.88,0,0,1,287.984,166.26Z" transform="translate(-221.473 -145.544)" fill="#ffa681"/>
          <path id="Path_327" data-name="Path 327" d="M243.031,170.029c0,1.825-.842,3.229-1.965,3.229s-1.965-1.4-1.965-3.229.842-3.229,1.965-3.229C242.048,166.8,243.031,168.2,243.031,170.029Z" transform="translate(-217.232 -136.959)" fill="#18315b"/>
          <path id="Path_328" data-name="Path 328" d="M260.931,170.029c0,1.825-.842,3.229-1.965,3.229s-1.965-1.4-1.965-3.229.842-3.229,1.965-3.229S260.931,168.2,260.931,170.029Z" transform="translate(-210.003 -136.959)" fill="#18315b"/>
          <path id="Path_329" data-name="Path 329" d="M238.529,162.663a36.067,36.067,0,0,1,8.7-1.263,1.557,1.557,0,0,1,1.544,1.825h0a1.645,1.645,0,0,1-1.544,1.263c-2.387-.14-8.844.281-11.933,1.4a2.917,2.917,0,0,1,.7-1.685A3.924,3.924,0,0,1,238.529,162.663Z" transform="translate(-218.767 -139.14)" fill="#18315b"/>
          <path id="Path_330" data-name="Path 330" d="M263.954,162.663a36.068,36.068,0,0,0-8.7-1.263,1.557,1.557,0,0,0-1.544,1.825h0a1.645,1.645,0,0,0,1.544,1.263c2.387-.14,8.844.281,11.933,1.4a2.917,2.917,0,0,0-.7-1.685A5.874,5.874,0,0,0,263.954,162.663Z" transform="translate(-211.341 -139.14)" fill="#18315b"/>
          <g id="Group_461" data-name="Group 461" transform="translate(33.875 32.227)">
            <path id="Path_331" data-name="Path 331" d="M250.527,183.943a3.335,3.335,0,0,1-1.685-.421,2.616,2.616,0,0,1-1.123-1.965c-.281-2.948.421-11.933.421-12.354a.775.775,0,0,1,1.544.14c0,.14-.7,9.266-.421,12.073,0,.421.281.7.421.7.7.421,2.387,0,3.089-.281a.756.756,0,0,1,.562,1.4A5.806,5.806,0,0,1,250.527,183.943Z" transform="translate(-247.653 -168.5)" fill="#f97853"/>
          </g>
          <path id="Path_332" data-name="Path 332" d="M242.6,183c.562,2.948,2.527,8.564,9.266,8.564s8.564-5.054,9.125-8.564Z" transform="translate(-215.819 -130.416)" fill="#fff"/>
          <g id="Group_462" data-name="Group 462" transform="translate(31.892 62.967)">
            <path id="Path_333" data-name="Path 333" d="M250.255,193.069a6.11,6.11,0,0,1-3.65-1.123.819.819,0,0,1,.842-1.4h0a6.356,6.356,0,0,0,2.808.842,8.4,8.4,0,0,0,3.089-.842.819.819,0,1,1,.842,1.4A7.461,7.461,0,0,1,250.255,193.069Z" transform="translate(-246.24 -190.396)" fill="#f97853"/>
          </g>
        </g>
        <path id="Path_334" data-name="Path 334" d="M291.781,169.349a2.732,2.732,0,0,1-1.825,1.4c0,1.685-.14,3.79-.281,5.756-.983,11.372-3.791,13.337-4.492,10.529-.421-1.825-.421-12.635-.14-16a32.207,32.207,0,0,1-4.212-.562l-2.667-11.091-.983,10.95c-3.931,1.4-13.2-.842-13.2-.842l-3.089-10.95-1.965,10.529c-5.9,2.948-13.337.983-13.337.983l-1.685-11.231-3.931,11.231s-12.635,4.492-12.775,0c-.14-2.667,1.825-10.108,3.51-15.864a23.707,23.707,0,0,1,11.512-14.6c15.724-8.423,32.289-3.931,38.045-.562C292.2,146.325,291.781,169.349,291.781,169.349Z" transform="translate(-216.654 -134.768)" fill="#18315b"/>
        <path id="Path_335" data-name="Path 335" d="M237.254,143s-10.389,12.354-13.9,34.536c-3.369,22.181-8.143,38.467,5.194,45.767,14.46,7.862,13.2-8.283,12.916-12.775-.14-4.352-12.495-16.426-4.352-50.4C239.781,149.317,237.254,143,237.254,143Z" transform="translate(-219.687 -131.443)" fill="#18315b"/>
        <path id="Path_336" data-name="Path 336" d="M230.4,175.6h0a22.474,22.474,0,0,0,.14,2.387c0,.842.14,1.825.14,3.089.421,7.441,1.965,20.356,6.177,24.849,1.685,1.825,4.914,2.667,8.7,2.948v-5.9a23.2,23.2,0,0,1-9.546-8.845,53.855,53.855,0,0,1-5.335-16.425Z" transform="translate(-215.36 -118.276)" fill="#000b29"/>
        <path id="Path_337" data-name="Path 337" d="M272.15,181.325a1.825,1.825,0,1,1-1.825-1.825A1.858,1.858,0,0,1,272.15,181.325Z" transform="translate(-199.972 -116.701)" fill="#fff"/>
      </g>
      <g id="Group_470" data-name="Group 470" transform="translate(0 120.78)">
        <path id="Path_338" data-name="Path 338" d="M325.911,303.489c-5.194,14.881-28.639,13.9-55.173,5.756h-.14c-.14,0-.14,0-.281-.14l-3.65-1.123a6.846,6.846,0,0,1-1.544-.562c-2.808-.983-5.756-1.965-8.7-3.089A297.147,297.147,0,0,1,228.2,291.837v-.14l2.667-7.019.983-2.387s49.417,5.335,74.266.14c.421-.14.842-.14,1.264-.281-.14-.562-.14-1.123-.281-1.685-13.2-44.784,1.263-53.348,6.037-59.665C313.276,220.8,335.878,275.271,325.911,303.489Z" transform="translate(-186.88 -220.8)" fill="#009cf8"/>
        <g id="Group_465" data-name="Group 465" transform="translate(119.376 59.665)">
          <path id="Path_339" data-name="Path 339" d="M295.452,272.425c-.14,0-.281.14-.421.14a1.421,1.421,0,0,1-.983-.562c-1.825-3.79-8.283-6.177-10.248-6.739.421-.14.842-.14,1.264-.281-.14-.562-.14-1.123-.281-1.685,2.527.842,8.985,3.369,11.231,7.721A1.15,1.15,0,0,1,295.452,272.425Z" transform="translate(-283.8 -263.3)" fill="#006bde"/>
        </g>
        <g id="Group_466" data-name="Group 466" transform="translate(41.882 60.959)">
          <path id="Path_340" data-name="Path 340" d="M248.535,270.228c-10.108,0-18.251-.562-18.952-.562a1.055,1.055,0,0,1,.14-2.106c.421,0,37.343,2.667,52.084-3.229a1.069,1.069,0,0,1,.842,1.965C274.507,269.386,260.328,270.228,248.535,270.228Z" transform="translate(-228.6 -264.222)" fill="#006bde"/>
        </g>
        <g id="Group_467" data-name="Group 467" transform="translate(79.787 66.855)">
          <path id="Path_341" data-name="Path 341" d="M255.6,288.607h0c8.423-2.387,16.145-4.633,20.637-6.037,6.177-1.965,11.231-8.143,13.618-13.477a1.069,1.069,0,0,1,1.965.842c-2.527,5.756-8,12.495-14.881,14.6-3.229.983-8.143,2.527-13.758,4.071a11.686,11.686,0,0,1-7.581,0Z" transform="translate(-255.6 -268.422)" fill="#006bde"/>
        </g>
        <g id="Group_469" data-name="Group 469" transform="translate(1.812 0.562)">
          <path id="Path_342" data-name="Path 342" d="M300.776,300.52c-76.372,25.691-99.817,8.844-99.817,8.844C195.765,262.9,214.717,221.2,214.717,221.2c5.616,9.266,11.933,25.27,11.933,25.27l1.685,35.659-.14.983v.421l-.281,2.387h0c.14,0,.281.14.562.14,23.024,4.914,65.281-.562,65.281-.562Z" transform="translate(-200.058 -221.2)" fill="#009cf8"/>
          <g id="Group_468" data-name="Group 468" transform="translate(14.967 62.333)">
            <path id="Path_343" data-name="Path 343" d="M224.17,268.127A78.711,78.711,0,0,0,212.658,280.2a1.083,1.083,0,0,1-1.544.14.938.938,0,0,1-.14-1.4h0A78.5,78.5,0,0,1,224.029,265.6l-.281,2.387h0C223.749,268.127,223.889,268.127,224.17,268.127Z" transform="translate(-210.719 -265.6)" fill="#006bde"/>
          </g>
          <path id="Path_344" data-name="Path 344" d="M266.8,272.079s8.423-19.233,21.339-17.549l3.931,13.9c-7.019,2.948-8,15.022-18.11,18.531Z" transform="translate(-173.102 -207.781)" fill="#ffa681"/>
        </g>
        <path id="Path_345" data-name="Path 345" d="M244.018,269.454s-5.335-12.495-19.374-16.145-23.024,2.948-23.866,5.475c-.983,2.527,5.335.14,5.335.14a12.264,12.264,0,0,0-6.458,4.914c-2.387,3.791,5.616-.281,5.616-.281s-5.756,2.527-6.458,4.914,6.879-1.544,8.283-1.544c0,0-6.739,2.667-6.739,5.054s7.721-1.544,13.477-1.264,14.6,2.667,14.6,2.667a98.94,98.94,0,0,0,13.337,1.685Z" transform="translate(-198.767 -208.104)" fill="#ffa681"/>
      </g>
    </g>
    <g id="Group_517" data-name="Group 517" transform="translate(48.411 85.3)">
      <g id="Group_510" data-name="Group 510" transform="translate(0 13.056)">
        <g id="Group_490" data-name="Group 490" transform="translate(395.616 8.985)">
          <g id="Group_489" data-name="Group 489">
            <g id="Group_472" data-name="Group 472" transform="translate(0 16.004)">
              <path id="Path_346" data-name="Path 346" d="M330.206,131.212a9.406,9.406,0,1,1,9.406-9.406A9.407,9.407,0,0,1,330.206,131.212Zm0-15.864a6.458,6.458,0,1,0,6.458,6.458A6.441,6.441,0,0,0,330.206,115.348Z" transform="translate(-320.8 -112.4)" fill="#006bde"/>
            </g>
            <g id="Group_473" data-name="Group 473" transform="translate(82.268)">
              <path id="Path_347" data-name="Path 347" d="M388.806,119.812a9.406,9.406,0,1,1,9.406-9.406A9.407,9.407,0,0,1,388.806,119.812Zm0-15.864a6.458,6.458,0,1,0,6.458,6.458A6.441,6.441,0,0,0,388.806,103.948Z" transform="translate(-379.4 -101)" fill="#009cf8"/>
            </g>
            <g id="Group_480" data-name="Group 480" transform="translate(92.657 39.87)">
              <g id="Group_476" data-name="Group 476" transform="translate(9.125)">
                <g id="Group_474" data-name="Group 474">
                  <path id="Path_348" data-name="Path 348" d="M394.844,138.946A1.558,1.558,0,0,1,393.3,137.4v-6.458a1.544,1.544,0,1,1,3.089,0V137.4A1.473,1.473,0,0,1,394.844,138.946Z" transform="translate(-393.3 -129.4)" fill="#006bde"/>
                </g>
                <g id="Group_475" data-name="Group 475" transform="translate(0 11.512)">
                  <path id="Path_349" data-name="Path 349" d="M394.844,147.146A1.558,1.558,0,0,1,393.3,145.6v-6.458a1.544,1.544,0,1,1,3.089,0V145.6A1.558,1.558,0,0,1,394.844,147.146Z" transform="translate(-393.3 -137.6)" fill="#006bde"/>
                </g>
              </g>
              <g id="Group_479" data-name="Group 479" transform="translate(0 8.985)">
                <g id="Group_477" data-name="Group 477" transform="translate(12.354)">
                  <path id="Path_350" data-name="Path 350" d="M403.041,138.889h-5.9a1.544,1.544,0,1,1,0-3.089h5.9a1.544,1.544,0,0,1,0,3.089Z" transform="translate(-395.6 -135.8)" fill="#006bde"/>
                </g>
                <g id="Group_478" data-name="Group 478">
                  <path id="Path_351" data-name="Path 351" d="M394.241,138.889h-5.9a1.544,1.544,0,0,1,0-3.089h5.9a1.558,1.558,0,0,1,1.544,1.544A1.782,1.782,0,0,1,394.241,138.889Z" transform="translate(-386.8 -135.8)" fill="#006bde"/>
                </g>
              </g>
            </g>
            <g id="Group_488" data-name="Group 488" transform="translate(42.819 0.421)">
              <g id="Group_487" data-name="Group 487">
                <g id="Group_483" data-name="Group 483" transform="translate(9.125)">
                  <g id="Group_481" data-name="Group 481">
                    <path id="Path_352" data-name="Path 352" d="M359.344,110.846A1.558,1.558,0,0,1,357.8,109.3v-6.458a1.544,1.544,0,0,1,3.089,0V109.3A1.558,1.558,0,0,1,359.344,110.846Z" transform="translate(-357.8 -101.3)" fill="#1c31b5"/>
                  </g>
                  <g id="Group_482" data-name="Group 482" transform="translate(0 11.371)">
                    <path id="Path_353" data-name="Path 353" d="M359.344,118.946A1.558,1.558,0,0,1,357.8,117.4v-6.458a1.544,1.544,0,1,1,3.089,0V117.4A1.473,1.473,0,0,1,359.344,118.946Z" transform="translate(-357.8 -109.4)" fill="#1c31b5"/>
                  </g>
                </g>
                <g id="Group_486" data-name="Group 486" transform="translate(0 8.845)">
                  <g id="Group_484" data-name="Group 484" transform="translate(12.495)">
                    <path id="Path_354" data-name="Path 354" d="M367.641,110.689h-5.9a1.544,1.544,0,0,1,0-3.089h5.9a1.558,1.558,0,0,1,1.544,1.544A1.649,1.649,0,0,1,367.641,110.689Z" transform="translate(-360.2 -107.6)" fill="#1c31b5"/>
                  </g>
                  <g id="Group_485" data-name="Group 485">
                    <path id="Path_355" data-name="Path 355" d="M358.741,110.689h-5.9a1.544,1.544,0,0,1,0-3.089h5.9a1.558,1.558,0,0,1,1.544,1.544C360.144,110.127,359.583,110.689,358.741,110.689Z" transform="translate(-351.3 -107.6)" fill="#1c31b5"/>
                  </g>
                </g>
              </g>
            </g>
          </g>
        </g>
        <g id="Group_509" data-name="Group 509">
          <g id="Group_508" data-name="Group 508">
            <g id="Group_491" data-name="Group 491" transform="translate(68.229 1.123)">
              <path id="Path_356" data-name="Path 356" d="M87.6,104.806a9.406,9.406,0,1,1,9.406,9.406A9.407,9.407,0,0,1,87.6,104.806Zm2.948,0a6.458,6.458,0,1,0,6.458-6.458A6.354,6.354,0,0,0,90.548,104.806Z" transform="translate(-87.6 -95.4)" fill="#006bde"/>
            </g>
            <g id="Group_492" data-name="Group 492" transform="translate(30.324 37.063)">
              <path id="Path_357" data-name="Path 357" d="M60.6,130.406a9.406,9.406,0,1,1,9.406,9.406A9.407,9.407,0,0,1,60.6,130.406Zm2.948,0a6.458,6.458,0,1,0,6.458-6.458A6.441,6.441,0,0,0,63.548,130.406Z" transform="translate(-60.6 -121)" fill="#009cf8"/>
            </g>
            <g id="Group_499" data-name="Group 499" transform="translate(0 50.119)">
              <g id="Group_495" data-name="Group 495" transform="translate(9.125)">
                <g id="Group_493" data-name="Group 493">
                  <path id="Path_358" data-name="Path 358" d="M47.044,139.846a1.558,1.558,0,0,0,1.544-1.544v-6.458a1.544,1.544,0,1,0-3.089,0V138.3A1.782,1.782,0,0,0,47.044,139.846Z" transform="translate(-45.5 -130.3)" fill="#006bde"/>
                </g>
                <g id="Group_494" data-name="Group 494" transform="translate(0 11.371)">
                  <path id="Path_359" data-name="Path 359" d="M47.044,147.946a1.558,1.558,0,0,0,1.544-1.544v-6.458a1.544,1.544,0,1,0-3.089,0V146.4A1.782,1.782,0,0,0,47.044,147.946Z" transform="translate(-45.5 -138.4)" fill="#006bde"/>
                </g>
              </g>
              <g id="Group_498" data-name="Group 498" transform="translate(0 8.845)">
                <g id="Group_496" data-name="Group 496">
                  <path id="Path_360" data-name="Path 360" d="M40.544,139.689h5.9a1.544,1.544,0,0,0,0-3.089h-5.9A1.558,1.558,0,0,0,39,138.144C39.14,139.127,39.7,139.689,40.544,139.689Z" transform="translate(-39 -136.6)" fill="#006bde"/>
                </g>
                <g id="Group_497" data-name="Group 497" transform="translate(12.495)">
                  <path id="Path_361" data-name="Path 361" d="M49.444,139.689h5.9a1.544,1.544,0,0,0,0-3.089h-5.9a1.558,1.558,0,0,0-1.544,1.544A1.473,1.473,0,0,0,49.444,139.689Z" transform="translate(-47.9 -136.6)" fill="#006bde"/>
                </g>
              </g>
            </g>
            <g id="Group_507" data-name="Group 507" transform="translate(34.115)">
              <g id="Group_506" data-name="Group 506">
                <g id="Group_502" data-name="Group 502" transform="translate(9.125)">
                  <g id="Group_500" data-name="Group 500">
                    <path id="Path_362" data-name="Path 362" d="M71.344,104.146a1.558,1.558,0,0,0,1.544-1.544V96.144a1.544,1.544,0,1,0-3.089,0V102.6A1.659,1.659,0,0,0,71.344,104.146Z" transform="translate(-69.8 -94.6)" fill="#1c31b5"/>
                  </g>
                  <g id="Group_501" data-name="Group 501" transform="translate(0 11.371)">
                    <path id="Path_363" data-name="Path 363" d="M71.344,112.246a1.558,1.558,0,0,0,1.544-1.544v-6.458a1.544,1.544,0,1,0-3.089,0V110.7A1.659,1.659,0,0,0,71.344,112.246Z" transform="translate(-69.8 -102.7)" fill="#1c31b5"/>
                  </g>
                </g>
                <g id="Group_505" data-name="Group 505" transform="translate(0 8.844)">
                  <g id="Group_503" data-name="Group 503">
                    <path id="Path_364" data-name="Path 364" d="M64.844,103.989h5.9a1.544,1.544,0,1,0,0-3.089h-5.9a1.558,1.558,0,0,0-1.544,1.544A1.473,1.473,0,0,0,64.844,103.989Z" transform="translate(-63.3 -100.9)" fill="#1c31b5"/>
                  </g>
                  <g id="Group_504" data-name="Group 504" transform="translate(12.495)">
                    <path id="Path_365" data-name="Path 365" d="M73.744,103.989h5.9a1.544,1.544,0,0,0,0-3.089h-5.9a1.558,1.558,0,0,0-1.544,1.544A1.473,1.473,0,0,0,73.744,103.989Z" transform="translate(-72.2 -100.9)" fill="#1c31b5"/>
                  </g>
                </g>
              </g>
            </g>
          </g>
        </g>
      </g>
      <g id="Group_516" data-name="Group 516" transform="translate(274.881)">
        <g id="Group_513" data-name="Group 513" transform="translate(47.696 21.023)">
          <g id="Group_511" data-name="Group 511">
            <path id="Path_366" data-name="Path 366" d="M272.882,103.539a1.061,1.061,0,0,1-.562-.14c-1.825-.7-2.808-1.123-2.808-1.123a1.022,1.022,0,0,1,.562-1.965s1.123.421,2.948,1.123a1.026,1.026,0,0,1,.562,1.4C273.584,103.258,273.3,103.4,272.882,103.539Z" transform="translate(-268.775 -100.275)" fill="#bbe2f2"/>
          </g>
          <g id="Group_512" data-name="Group 512" transform="translate(8.635 3.713)">
            <path id="Path_367" data-name="Path 367" d="M309.81,143.055c.7,1.965,1.4,3.931,1.965,5.9a.966.966,0,0,0,1.123.7h.14a1,1,0,0,0,.7-1.263c-.562-1.965-1.263-4.071-1.965-5.9a.987.987,0,0,0-1.4-.562C309.951,141.932,309.67,142.493,309.81,143.055Z" transform="translate(-260.851 -87.207)" fill="#bbe2f2"/>
            <path id="Path_368" data-name="Path 368" d="M312.41,151.474c.421,1.965.983,4.071,1.264,6.037a1.068,1.068,0,0,0,1.123.842h.14a1.093,1.093,0,0,0,.842-1.264c-.421-2.106-.842-4.071-1.264-6.177a1.093,1.093,0,0,0-2.106.562Z" transform="translate(-259.8 -83.834)" fill="#bbe2f2"/>
            <path id="Path_369" data-name="Path 369" d="M315.823,175.983a.96.96,0,0,0,.983-.983v-6.318a1.055,1.055,0,0,0-2.106.14c0,1.965.14,4.071,0,6.177a1,1,0,0,0,1.123.983Z" transform="translate(-258.861 -76.755)" fill="#bbe2f2"/>
            <path id="Path_370" data-name="Path 370" d="M314.85,158.908c-.562.14-.983.562-.842,1.123a21.1,21.1,0,0,1,.281,2.808,27.413,27.413,0,0,1,.281,3.229,1.085,1.085,0,0,0,1.123.983h0a1.085,1.085,0,0,0,.983-1.123c-.14-1.123-.14-2.246-.281-3.369a20.941,20.941,0,0,1-.281-2.948,1.13,1.13,0,0,0-1.263-.7Z" transform="translate(-259.152 -80.318)" fill="#bbe2f2"/>
            <path id="Path_371" data-name="Path 371" d="M308.908,140.66a.887.887,0,0,0,1.123.562c.14,0,.281,0,.281-.14a1.15,1.15,0,0,0,.562-1.4c-.842-1.965-1.825-3.79-2.808-5.616a1.036,1.036,0,0,0-1.825.983C307.223,136.869,308.065,138.835,308.908,140.66Z" transform="translate(-262.335 -90.568)" fill="#bbe2f2"/>
            <path id="Path_372" data-name="Path 372" d="M275.451,105l5.475,2.948a1.052,1.052,0,0,0,.7.14c.281,0,.562-.281.842-.562a.973.973,0,0,0-.421-1.4c-1.825-1.123-3.65-2.106-5.475-3.089a1.091,1.091,0,0,0-1.4.421A1,1,0,0,0,275.451,105Z" transform="translate(-274.926 -102.919)" fill="#bbe2f2"/>
            <path id="Path_373" data-name="Path 373" d="M287.936,112.977c.281.14.421.281.7.14a.772.772,0,0,0,.7-.421.938.938,0,0,0-.14-1.4c-1.685-1.264-3.369-2.527-5.054-3.65a1.012,1.012,0,1,0-1.123,1.685C284.707,110.59,286.392,111.713,287.936,112.977Z" transform="translate(-271.828 -101.071)" fill="#bbe2f2"/>
            <path id="Path_374" data-name="Path 374" d="M300.228,125.574a1.275,1.275,0,0,0,.983.421,1.064,1.064,0,0,0,.562-.281,1.1,1.1,0,0,0,.14-1.544c-1.263-1.685-2.667-3.229-4.071-4.773a1.1,1.1,0,0,0-1.685,1.4C297.56,122.345,298.964,123.889,300.228,125.574Z" transform="translate(-266.43 -96.4)" fill="#bbe2f2"/>
            <path id="Path_375" data-name="Path 375" d="M294.506,118.829a1.032,1.032,0,0,0,.842.281c.281,0,.421-.14.7-.281a1.1,1.1,0,0,0,0-1.544c-1.544-1.4-3.089-2.948-4.633-4.212a1.1,1.1,0,0,0-1.4,1.685C291.558,116.021,293.1,117.425,294.506,118.829Z" transform="translate(-268.991 -98.921)" fill="#bbe2f2"/>
            <path id="Path_376" data-name="Path 376" d="M305.052,132.74a1.06,1.06,0,0,0,.983.562.516.516,0,0,0,.421-.14.875.875,0,0,0,.281-1.4c-1.123-1.825-2.246-3.51-3.51-5.335a1.012,1.012,0,0,0-1.685,1.123A48.419,48.419,0,0,1,305.052,132.74Z" transform="translate(-264.234 -93.599)" fill="#bbe2f2"/>
          </g>
        </g>
        <g id="Group_515" data-name="Group 515">
          <g id="Group_514" data-name="Group 514">
            <path id="Path_377" data-name="Path 377" d="M286.563,102.287,291.056,85.3l-56.156.562Z" transform="translate(-234.76 -85.3)" fill="#009cf8"/>
            <path id="Path_378" data-name="Path 378" d="M234.8,85.7l49,20.637h.14l2.106,3.51.562-7.721Z" transform="translate(-234.8 -85.138)" fill="#006bde"/>
            <path id="Path_379" data-name="Path 379" d="M272.592,103.91l-4.492-.7,2.387-2.808Z" transform="translate(-221.35 -79.201)" fill="#006bde"/>
            <path id="Path_380" data-name="Path 380" d="M277.719,103.81l6.177,2.527-12.635,14.32L234.9,85.7Z" transform="translate(-234.76 -85.138)" fill="#009cf8"/>
          </g>
        </g>
      </g>
    </g>
    <g id="Group_518" data-name="Group 518" transform="translate(56.553 539.318)">
      <path id="Path_381" data-name="Path 381" d="M622.179,419.37v.983a10.665,10.665,0,0,1-10.67,10.67H55.57a10.665,10.665,0,0,1-10.67-10.67v-.983A10.665,10.665,0,0,1,55.57,408.7h555.8A10.786,10.786,0,0,1,622.179,419.37Z" transform="translate(-44.76 -408.7)" fill="#1c31b5"/>
      <path id="Path_382" data-name="Path 382" d="M622.219,419.37v.562H44.8v-.562A10.665,10.665,0,0,1,55.47,408.7h555.8A10.817,10.817,0,0,1,622.219,419.37Z" transform="translate(-44.8 -408.7)" fill="#006bde"/>
    </g>
    <g id="Group_519" data-name="Group 519" transform="translate(248.184 399.069)">
      <path id="Path_383" data-name="Path 383" d="M363.384,415.355h-174.5a7.549,7.549,0,0,1-7.581-7.581V316.381a7.549,7.549,0,0,1,7.581-7.581h174.5a7.549,7.549,0,0,1,7.581,7.581v91.393A7.549,7.549,0,0,1,363.384,415.355Z" transform="translate(-181.3 -308.8)" fill="#18315b"/>
      <rect id="Rectangle_225" data-name="Rectangle 225" width="29.341" height="33.553" transform="translate(80.162 106.415)" fill="#000b29"/>
      <circle id="Ellipse_48" data-name="Ellipse 48" cx="14.6" cy="14.6" r="14.6" transform="translate(79.881 40.011)" fill="#1d567e"/>
      <path id="Path_384" data-name="Path 384" d="M297.31,411.793H221.5v-2.527A9.257,9.257,0,0,1,230.766,400H287.9a9.257,9.257,0,0,1,9.266,9.266v2.527Z" transform="translate(-165.064 -271.965)" fill="#18315b"/>
    </g>
  </g>
</svg>
