<svg xmlns="http://www.w3.org/2000/svg" xmlns:xlink="http://www.w3.org/1999/xlink" width="1366" height="750" viewBox="0 0 1366 750">
  <defs>
    <linearGradient id="linear-gradient" x1="0.5" x2="0.5" y2="1" gradientUnits="objectBoundingBox">
      <stop offset="0" stop-color="#fff"/>
      <stop offset="1" stop-color="#f6faff"/>
    </linearGradient>
  </defs>
  <g id="Group_545" data-name="Group 545" transform="translate(0 -118)">
    <rect id="Rectangle_125" data-name="Rectangle 125" width="1366" height="750" transform="translate(0 118)" fill="url(#linear-gradient)"/>
    <path id="Subtraction_1" data-name="Subtraction 1" d="M-247-1039.082h0v-448.835a251.645,251.645,0,0,1,46.721,5.578,245.993,245.993,0,0,1,43.439,13.716,241.8,241.8,0,0,1,39.249,21,236.419,236.419,0,0,1,34.15,27.417,228.943,228.943,0,0,1,28.142,32.98,220.622,220.622,0,0,1,21.227,37.684,214.419,214.419,0,0,1,13.4,41.529A214.253,214.253,0,0,1-16-1263.5a214.253,214.253,0,0,1-4.669,44.516,214.423,214.423,0,0,1-13.4,41.529A220.633,220.633,0,0,1-55.3-1139.771a228.951,228.951,0,0,1-28.142,32.98,236.419,236.419,0,0,1-34.15,27.417,241.79,241.79,0,0,1-39.249,21,245.975,245.975,0,0,1-43.439,13.716A251.63,251.63,0,0,1-247-1039.082Z" transform="translate(247 1659)" fill="#cfe0ff" opacity="0.33"/>
    <path id="Subtraction_3" data-name="Subtraction 3" d="M-247-1339.635h0v-148.282a82.687,82.687,0,0,1,15.392,1.843,80.886,80.886,0,0,1,14.311,4.531,79.609,79.609,0,0,1,12.93,6.937,77.936,77.936,0,0,1,11.251,9.058,75.581,75.581,0,0,1,9.271,10.9,72.944,72.944,0,0,1,6.993,12.45,70.977,70.977,0,0,1,4.415,13.72,70.976,70.976,0,0,1,1.538,14.707,70.973,70.973,0,0,1-1.538,14.707,70.976,70.976,0,0,1-4.415,13.72,72.945,72.945,0,0,1-6.993,12.45,75.584,75.584,0,0,1-9.271,10.9,77.919,77.919,0,0,1-11.251,9.058,79.573,79.573,0,0,1-12.93,6.937,80.88,80.88,0,0,1-14.311,4.531A82.688,82.688,0,0,1-247-1339.635Z" transform="translate(-980.276 365) rotate(90)" fill="#cfe0ff" opacity="0.33"/>
    <path id="Subtraction_5" data-name="Subtraction 5" d="M-247-1153.62h0v-334.3a187.43,187.43,0,0,1,34.8,4.155,183.222,183.222,0,0,1,32.354,10.216,180.1,180.1,0,0,1,29.233,15.638,176.09,176.09,0,0,1,25.435,20.421,170.514,170.514,0,0,1,20.961,24.564,164.322,164.322,0,0,1,15.81,28.067,159.7,159.7,0,0,1,9.982,30.931,159.578,159.578,0,0,1,3.478,33.156,159.578,159.578,0,0,1-3.478,33.156,159.7,159.7,0,0,1-9.982,30.932,164.334,164.334,0,0,1-15.81,28.068,170.526,170.526,0,0,1-20.961,24.564,176.09,176.09,0,0,1-25.435,20.421,180.085,180.085,0,0,1-29.233,15.638,183.213,183.213,0,0,1-32.354,10.216A187.416,187.416,0,0,1-247-1153.62Z" transform="translate(-286.269 365) rotate(90)" fill="#cfe0ff" opacity="0.33"/>
    <path id="Subtraction_4" data-name="Subtraction 4" d="M0,0H0V302.835a167.964,167.964,0,0,0,31.349-3.764A164.4,164.4,0,0,0,60.5,289.817,161.957,161.957,0,0,0,86.833,275.65a158.8,158.8,0,0,0,22.914-18.5A154.251,154.251,0,0,0,128.63,234.9a149.084,149.084,0,0,0,14.243-25.426,145.245,145.245,0,0,0,8.993-28.02,145.538,145.538,0,0,0,0-60.071,145.247,145.247,0,0,0-8.993-28.02A149.092,149.092,0,0,0,128.63,67.936a154.254,154.254,0,0,0-18.883-22.252,158.8,158.8,0,0,0-22.914-18.5A161.947,161.947,0,0,0,60.5,13.018,164.389,164.389,0,0,0,31.349,3.764,167.955,167.955,0,0,0,0,0Z" transform="translate(282.083 867.999) rotate(-90)" fill="#cfe0ff" opacity="0.33"/>
    <path id="Subtraction_2" data-name="Subtraction 2" d="M0,0H0V287a160.911,160.911,0,0,0,29.875-3.567,157.3,157.3,0,0,0,27.776-8.771,154.617,154.617,0,0,0,25.1-13.426,151.176,151.176,0,0,0,21.837-17.532,146.394,146.394,0,0,0,18-21.088,141.073,141.073,0,0,0,13.573-24.1,136.63,136.63,0,0,0,0-110.041,141.08,141.08,0,0,0-13.573-24.1,146.4,146.4,0,0,0-18-21.089A151.175,151.175,0,0,0,82.748,25.763a154.609,154.609,0,0,0-25.1-13.426A157.285,157.285,0,0,0,29.875,3.567,160.9,160.9,0,0,0,0,0Z" transform="translate(1365.709 539.001) rotate(180)" fill="#cfe0ff" opacity="0.33"/>
  </g>
</svg>
