<svg xmlns="http://www.w3.org/2000/svg" width="520.294" height="609.162" viewBox="0 0 520.294 609.162">
  <g id="OBJECTS" transform="translate(-242.597 -103.27)">
    <path id="Path_104" data-name="Path 104" d="M428.054,419.749a10.147,10.147,0,0,1-.661-20.274c.22,0,12.341-.881,28.207-7.492a123.037,123.037,0,0,0,52.888-41.429,10.094,10.094,0,0,1,16.307,11.9c-38.785,53.109-93.656,57.075-96.08,57.3Z" transform="translate(210.991 292.683)" fill="#74818e"/>
    <path id="Path_105" data-name="Path 105" d="M245,302.754a10.147,10.147,0,0,1,20.274-.661c0,.22.881,12.341,7.493,28.207A123.037,123.037,0,0,0,314.2,383.188a10.094,10.094,0,1,1-11.9,16.307c-53.109-38.785-57.075-93.656-57.3-96.08Z" transform="translate(2.892 227.875)" fill="#74818e"/>
    <path id="Path_106" data-name="Path 106" d="M445.707,130.683a10.007,10.007,0,0,1-13,15.205c-.22-.22-9.7-7.493-26-13.442a121.409,121.409,0,0,0-66.992-4.407,10.027,10.027,0,1,1-4.187-19.613c64.347-13.442,107.76,20.274,109.523,21.816C445.487,130.242,445.707,130.462,445.707,130.683Z" transform="translate(102.326 2.403)" fill="#74818e"/>
    <path id="Path_107" data-name="Path 107" d="M268.4,310.011,326.357,279.6l21.816,57.516L290.657,357.39Z" transform="translate(31.058 212.244)" fill="#fda080"/>
    <path id="Path_108" data-name="Path 108" d="M276.8,311.7s18.29-3.746,26,0,14.324,26.885,14.324,26.885l38.344,2.644L320.873,276l-35.92,16.968Z" transform="translate(41.169 207.911)" fill="#f4907c"/>
    <path id="Path_109" data-name="Path 109" d="M301.628,298.157a58.338,58.338,0,0,0-29.97,76.688l98.5,224.554a58.338,58.338,0,0,0,76.688,29.97l286.919-126.05V108.2Z" transform="translate(29.122 5.934)" fill="#d4d2d1"/>
    <circle id="Ellipse_39" data-name="Ellipse 39" cx="19.613" cy="19.613" r="19.613" transform="translate(694.087 496.04) rotate(-76.768)" fill="gray" opacity="0.4"/>
    <circle id="Ellipse_40" data-name="Ellipse 40" cx="19.613" cy="19.613" r="19.613" transform="translate(616.684 237.726) rotate(-76.768)" fill="gray" opacity="0.4"/>
    <circle id="Ellipse_41" data-name="Ellipse 41" cx="19.613" cy="19.613" r="19.613" transform="matrix(0.231, -0.973, 0.973, 0.231, 338.606, 385.056)" fill="gray" opacity="0.4"/>
    <g id="Group_355" data-name="Group 355" transform="translate(328.767 438.074)" opacity="0.4">
      <path id="Path_110" data-name="Path 110" d="M418.023,281.1l-18.731,19.172-78.451,68.094L308.5,365.5l11.459,26a66.407,66.407,0,0,0,3.526,6.831c9.255-2.424,20.935-6.17,26-10.137,9.035-7.052,50.244-65.008,50.244-65.008s12.12-7.492,13.883-11.679c1.543-4.187,4.628-22.037,5.95-24.9C420.887,283.524,418.023,281.1,418.023,281.1Z" transform="translate(-249.442 -224.025)" fill="gray"/>
      <path id="Path_111" data-name="Path 111" d="M379.323,301.7c4.187-.441,7.272-6.391,7.272-6.391l6.611-2.865.881-6.611L383.069,281.2l-61.262-17.629L283.683,255.2l-1.983,6.391,11.239,25.342,63.907,12.561C356.845,299.935,375.136,302.138,379.323,301.7Z" transform="translate(-281.7 -255.2)" fill="gray"/>
    </g>
    <path id="Path_112" data-name="Path 112" d="M477.241,266.2l4.187,39.666,22.478,36.581,34.377,35.038L395.925,439.846l-8.374-68.534L379.4,334.73l-22.7-38.785L474.817,244.6a5.587,5.587,0,0,1,.881,2.644C476.139,248.126,477.241,266.2,477.241,266.2Z" transform="translate(137.343 170.115)" fill="gray" opacity="0.4"/>
    <g id="Group_356" data-name="Group 356" transform="translate(494.217 413.555)">
      <path id="Path_113" data-name="Path 113" d="M467.271,255.684,366.122,299.317a4.357,4.357,0,0,0-2.2,5.289l28.868,66.771a4.357,4.357,0,0,0,5.289,2.2l101.149-43.633a4.357,4.357,0,0,0,2.2-5.289L472.56,257.888A3.957,3.957,0,0,0,467.271,255.684Z" transform="translate(-348.447 -230.505)" fill="#e5e5e5"/>
      <path id="Path_114" data-name="Path 114" d="M451.3,258.937l-80.214,34.6a3.344,3.344,0,0,0-1.763,4.187l17.409,40.107a3.344,3.344,0,0,0,4.187,1.763l80.214-34.6a3.344,3.344,0,0,0,1.763-4.187L455.485,260.7C455.044,258.937,453.061,258.276,451.3,258.937Z" transform="translate(-341.95 -226.485)" fill="#666"/>
      <path id="Path_115" data-name="Path 115" d="M409.563,287.837l-13.663,5.95a3.322,3.322,0,0,0-1.763,4.407l4.848,11.239a3.322,3.322,0,0,0,4.407,1.763l13.663-5.95a3.322,3.322,0,0,0,1.763-4.407L413.971,289.6A3.322,3.322,0,0,0,409.563,287.837Z" transform="translate(-312.115 -191.699)" fill="#cbcbcb"/>
      <path id="Path_116" data-name="Path 116" d="M471.857,244.352l-56.635,24.461-56.634,24.461a2.929,2.929,0,0,0-.881,4.848l13.663,14.544a2.012,2.012,0,0,0,2.424.441l50.9-22.037,50.9-22.037a2.212,2.212,0,0,0,1.322-2.2L475.6,246.776A2.558,2.558,0,0,0,471.857,244.352Z" transform="translate(-356.779 -244.074)" fill="#fff"/>
      <path id="Path_117" data-name="Path 117" d="M476.76,265.719l-1.322-20.054a3.426,3.426,0,0,0-3.306-.441L415.5,269.686l-56.634,24.461a2.864,2.864,0,0,0-1.763,2.644l13.663,14.544a2.012,2.012,0,0,0,2.424.441l50.9-22.037L475,267.7C476.319,267.482,476.98,266.821,476.76,265.719Z" transform="translate(-356.393 -242.964)" fill="gray"/>
      <path id="Path_118" data-name="Path 118" d="M468.3,264.316l-.441-16.528a2.625,2.625,0,0,0-2.865-.22l-51.566,22.257-51.566,22.257a2.534,2.534,0,0,0-1.763,2.2l11.679,11.459a1.927,1.927,0,0,0,2.2.22l46.5-20.053,46.5-20.053A1.474,1.474,0,0,0,468.3,264.316Z" transform="translate(-352.782 -240.238)" fill="#a5b4c2"/>
    </g>
    <path id="Path_119" data-name="Path 119" d="M406.14,349.16l-4.628-22.037s4.407-13.883,3.967-16.748c-.22-2.644-5.068-19.392-5.068-19.392s-3.085-.441-3.967,1.322c-.661,1.763,0,9.917,0,9.917a22.325,22.325,0,0,1-3.085-4.187c-.441-1.1-1.543-12.561-2.2-18.07a3.162,3.162,0,0,0-3.306-2.865h0a2.962,2.962,0,0,0-3.085,2.865l-.881,6.391-5.509,1.1-2.644,5.95L370,305.748l3.526,13.883,8.154,10.578,1.763,18.952Z" transform="translate(153.351 209.235)" fill="#eac9b8"/>
    <path id="Path_120" data-name="Path 120" d="M448.026,326.8,432.82,310.27s-13.883-4.628-15.866-6.611c-1.983-1.763-12.781-15.426-12.781-15.426s1.543-2.865,3.305-2.424,7.933,5.73,7.933,5.73a18.744,18.744,0,0,0-1.543-4.848c-.661-1.1-9.256-8.815-13.442-12.341a3.121,3.121,0,0,1-.441-4.407h0a3.09,3.09,0,0,1,4.187-.881l5.73,3.085,3.967-3.746,6.391,1.322,13.222,2.424,9.035,11.018,3.967,12.781,14.324,12.561Z" transform="translate(188.595 198.763)" fill="#eac9b8"/>
    <rect id="Rectangle_215" data-name="Rectangle 215" width="98.945" height="70.958" transform="translate(380.104 472.819) rotate(-19.604)" fill="#fff"/>
    <rect id="Rectangle_216" data-name="Rectangle 216" width="96.301" height="65.67" transform="translate(380.271 472.853) rotate(-19.604)" fill="#c4ccd7"/>
    <rect id="Rectangle_217" data-name="Rectangle 217" width="98.945" height="70.958" transform="translate(375.214 467.746) rotate(-19.604)" fill="#fff"/>
    <path id="Path_121" data-name="Path 121" d="M313.67,259.1l11.679,4.848s13.222-2.865,17.629-1.1,17.629,10.137,18.952,11.018c1.322,1.1,3.526,5.509,3.526,6.611,0,.881-2.865,5.289-5.95,5.509s-16.968.661-16.968.661,3.526,3.085,4.187,3.967.661,3.305.22,3.746-11.239-4.187-14.324-5.289c-3.085-.881-7.713-5.068-8.594-5.95s-3.746-3.967-3.746-3.967L307.5,273.865Z" transform="translate(78.122 187.568)" fill="#fad1b1"/>
    <path id="Path_122" data-name="Path 122" d="M350.22,330.288l8.154-9.7s13-3.526,16.307-7.052c3.085-3.526,2.2-9.035,2.865-10.578.881-1.543-.441-11.239.22-12.12,2.424-2.644,5.73-5.068,7.933-7.272,3.526-3.967,1.1-5.73-.881-4.848-2.865,1.1-21.6,13.883-21.6,13.883s1.763-4.407,1.983-5.289a3.979,3.979,0,0,0-1.543-3.305c-.661-.22-8.154,8.815-10.357,11.239-2.2,2.2-4.628,7.933-4.848,9.256-.441,1.1-1.322,5.289-1.322,5.289L338.1,320.371Z" transform="translate(114.954 210.919)" fill="#fad1b1"/>
    <g id="Group_357" data-name="Group 357" transform="translate(451.875 299.826)">
      <path id="Path_123" data-name="Path 123" d="M418.166,193.854l-73.823,24.461a8.3,8.3,0,0,0-5.289,10.578l14.765,44.294a8.3,8.3,0,0,0,10.578,5.289l73.823-24.461a8.3,8.3,0,0,0,5.289-10.578l-14.765-44.294A8.213,8.213,0,0,0,418.166,193.854Z" transform="translate(-336.332 -191.353)" fill="#647889"/>
      <path id="Path_124" data-name="Path 124" d="M440.113,257.11,366.29,281.791a10.771,10.771,0,0,1-13.442-6.611l-14.765-44.294a10.771,10.771,0,0,1,6.611-13.442l73.823-24.461a10.771,10.771,0,0,1,13.442,6.611l14.765,44.294A10.266,10.266,0,0,1,440.113,257.11Zm-90.571-36.581a6.246,6.246,0,0,0-3.967,7.933l14.765,44.294a6.246,6.246,0,0,0,7.933,3.967l70.518-23.359a6.246,6.246,0,0,0,3.967-7.933l-14.765-44.294a6.246,6.246,0,0,0-7.933-3.967Z" transform="translate(-337.565 -192.465)" fill="#f8fbfc"/>
      <path id="Path_125" data-name="Path 125" d="M347.142,219.926a2.649,2.649,0,1,1-3.306-1.763A2.744,2.744,0,0,1,347.142,219.926Z" transform="translate(-332.299 -161.671)" fill="#d4d2d1"/>
    </g>
    <path id="Path_126" data-name="Path 126" d="M313.5,216.549,383.136,316.6l31.292-7.933-8.815-20.935-18.07-5.289L366.168,244.1,475.25,204.429l1.763-17.409L462.689,151.1Z" transform="translate(85.344 57.572)" fill="gray" opacity="0.4"/>
    <path id="Path_127" data-name="Path 127" d="M366.731,221.236l-14.324-6.611a1.435,1.435,0,0,0-1.983.441l-.22.22a1.7,1.7,0,0,0,.661,2.644l14.544,6.391a1.713,1.713,0,0,0,2.2-.661A1.853,1.853,0,0,0,366.731,221.236Z" transform="translate(129.075 133.759)" fill="#fdf5ea"/>
    <path id="Path_128" data-name="Path 128" d="M363.962,175.3a34.376,34.376,0,0,1-8.154,2.2c-3.967.441-9.035-1.763-12.341-1.1-3.306.441-11.679,6.391-11.679,6.391l-3.305,7.933L326.5,203.507l14.324,5.95s3.746,1.763,9.7-1.543,16.968-12.561,16.968-12.561l7.272-3.746Z" transform="translate(100.992 86.7)" fill="#eac9b8"/>
    <path id="Path_129" data-name="Path 129" d="M362.544,212.754l9.917,3.526s5.068,5.509,6.17,7.052c.881,1.543,0,6.17,0,6.17s3.526,3.526,3.306,6.611c-.22,3.306-5.289,7.713-11.9,7.713-6.391.22-13.222.881-14.765,0s-8.815-15.426-8.815-15.426L336.1,214.3l20.053-9.7Z" transform="translate(112.547 121.968)" fill="#eac9b8"/>
    <path id="Path_130" data-name="Path 130" d="M253.985,372.2s-3.305-33.716,4.407-44.074c7.713-10.578,48.922-83.079,52.447-85.943s76.688,37.462,76.688,37.462-8.154,19.172-9.035,19.613S323.4,279.862,323.4,279.862l-9.476,30.411,14.1-5.509,12.561,28.648s-14.985,9.476-40.327,21.816C274.7,367.789,253.985,372.2,253.985,372.2Z" transform="translate(12.859 167.026)" fill="#80c1d8"/>
    <path id="Path_131" data-name="Path 131" d="M266.4,365c-.441.881,36.361,27.987,50.685,23.139,14.1-4.848,69.416-18.511,76.908-24.02,7.492-5.289,48.922-54.431,48.922-54.431L429.695,293.6l-43.633,39.446-30.19,9.255-14.324-32.394C341.768,310.128,280.506,328.418,266.4,365Z" transform="translate(28.649 229.095)" fill="#80c1d8"/>
    <path id="Path_132" data-name="Path 132" d="M373.4,333.442l32.614-4.407,12.341,44.514,83.3-36.581L472.786,308.32l19.833-24.02,64.127,52.668s18.731,55.312,18.29,61.483-22.7,52.668-56.414,68.314-79.332-4.628-85.5-5.95-42.09-47.159-42.751-48.7C389.487,410.571,373.4,333.442,373.4,333.442Z" transform="translate(157.444 217.901)" fill="#f39475"/>
    <g id="Group_358" data-name="Group 358" transform="translate(386.724 129.784)">
      <path id="Path_133" data-name="Path 133" d="M485.616,225.922c-4.187-22.037-5.95-71.619-10.137-78.671C469.97,138,457.63,125.214,437.8,117.5c0,0-84.18-7.272-103.573,4.628S308,238.263,308,243.111s64.788,87.266,64.788,87.266l20.494-16.087-41.649-68.314,92.554-40.548,1.763,11.459-64.568,29.75,12.781,22.918L476.8,240.907A13.349,13.349,0,0,0,485.616,225.922Z" transform="translate(-308 -115.302)" fill="#e74a5f"/>
      <path id="Path_134" data-name="Path 134" d="M382.564,251.91l-7.933,1.763L308.3,173.9l64.347,85.723Z" transform="translate(-307.639 -44.768)" fill="#c9364f"/>
      <path id="Path_135" data-name="Path 135" d="M440.96,167.4c-.22.22-3.967,5.509-9.917,7.933-6.17,2.2-77.569,24.24-77.569,24.24l-8.374-1.1,4.628,8.154,82.638-28.648A12.96,12.96,0,0,0,440.96,167.4Z" transform="translate(-263.344 -52.592)" fill="#c9364f"/>
      <path id="Path_136" data-name="Path 136" d="M327.9,228.906l13.222-97.843s38.124-3.967,48.7,0,26.444,11.018,26.444,11.018l3.967,46.277Z" transform="translate(-284.047 -98.452)" fill="#c9364f"/>
      <path id="Path_137" data-name="Path 137" d="M322.8,121.6s20.053,24.681,20.494,48.922,8.374,14.1,8.374,14.1l-4.187-44.294C347.261,140.331,336.9,126.007,322.8,121.6Z" transform="translate(-290.186 -107.721)" fill="#c9364f"/>
      <path id="Path_138" data-name="Path 138" d="M375.827,160.764s-4.407-26,8.154-38.564c0,0-15.866,7.052-20.714,25.122S375.827,160.764,375.827,160.764Z" transform="translate(-242.504 -106.999)" fill="#c9364f"/>
    </g>
    <g id="Group_359" data-name="Group 359" transform="translate(440.028 103.27)">
      <path id="Path_139" data-name="Path 139" d="M392.788,139.1c.661-.22-.441,17.85-.441,17.85l-5.95,9.255s-13.663,9.7-16.307,11.018c-2.644,1.1-17.629,1.322-17.629,1.322s-4.407,2.2-6.611,1.1c-2.2-.881-4.407-8.374-4.407-8.374s-8.374-4.407-7.933-21.6C333.73,132.492,355.546,125,355.546,125Z" transform="translate(-330.62 -77.115)" fill="#eac9b8"/>
      <path id="Path_140" data-name="Path 140" d="M341.028,117.187s-5.068-1.983-7.933,1.763c-2.865,3.967,1.983,11.018,1.983,11.018Z" transform="translate(-332.189 -87.151)" fill="#eac9b8"/>
      <path id="Path_141" data-name="Path 141" d="M372.21,131.8s3.746,1.1,3.746,4.187-7.272,11.018-12.341,10.357S372.21,131.8,372.21,131.8Z" transform="translate(-295.719 -68.93)" fill="#eac9b8"/>
      <path id="Path_142" data-name="Path 142" d="M332.7,170.328s-2.865-31.072,7.272-45.836,21.155-17.409,21.155-17.409a28.947,28.947,0,0,1,23.8-2.2c13.222,4.628,24.681,16.968,29.089,29.97s-1.983,31.733-9.035,40.988a97.777,97.777,0,0,1-16.968,16.307s4.187-12.12-.661-12.781c0,0-19.172,14.544-31.953,13.663S340.2,189.72,340.2,189.72s15.646-3.746,22.257-9.255c0,0-18.29,5.509-26.664,5.289l6.17-7.713-4.187,1.983C337.332,180.024,332.924,176.277,332.7,170.328Z" transform="translate(-332.019 -103.27)" fill="#393f4b"/>
    </g>
    <path id="Path_143" data-name="Path 143" d="M338.463,337.324s1.763,6.831-1.322,11.9c-3.085,4.848-9.035,5.95-12.781,11.239-3.967,5.509-11.679,16.087-22.478,16.528-10.8.22-18.952-11.018-25.122-13.442-6.391-2.424-22.478,2.2-27.546-7.933s6.831-27.105-.881-35.7c-7.933-8.594-6.611-19.172-2.2-24.02,7.272-8.154,16.748-8.815,27.766-2.644,11.018,6.391,17.409,1.543,22.478,0,5.068-1.763,13.663-2.2,16.748-.881,3.305,1.322,5.509,7.052,5.509,7.052Z" transform="translate(0 223.715)" fill="#11114e"/>
    <path id="Path_144" data-name="Path 144" d="M299.5,270.4l-14.1,5.509L276.8,297.726s13.663-1.983,16.748,0c1.543.881,4.187,4.628,6.611,8.374,7.713-4.407,11.9-6.831,11.9-6.831Z" transform="translate(41.169 201.17)" fill="#63adc1"/>
    <path id="Path_145" data-name="Path 145" d="M309.868,301.1s-3.746,1.1-9.7,3.306c2.644,5.95,6.391,15.866,5.509,21.816-1.322,8.815-12.781,15.646-12.781,15.646l31.292-8.154Z" transform="translate(60.548 238.123)" fill="#63adc1"/>
    <path id="Path_146" data-name="Path 146" d="M413.1,362.645s-5.509-15.205.22-24.02c6.611-10.357,24.681-17.189,36.361-12.781,16.968,6.391,15.646,11.9,15.646,11.9Z" transform="translate(202.363 266.267)" fill="#fad1b1"/>
    <path id="Path_147" data-name="Path 147" d="M475.312,337.079s-12.12-13.222-30.411-10.357c-18.07,2.865-22.257,6.611-22.257,6.611l4.628-.22L418.9,339.5s-9.917,16.307-9.7,27.766a34.6,34.6,0,0,0,5.73,18.952s2.2,11.239,7.493,16.087,18.29,9.917,27.987,9.035a52.634,52.634,0,0,0,18.29-6.17,23.567,23.567,0,0,0,20.274-23.359s5.95-7.272,6.17-11.679-3.085-15.205-3.085-15.205S488.094,337.74,475.312,337.079Z" transform="translate(200.534 268.474)" fill="#6f251e"/>
    <path id="Path_148" data-name="Path 148" d="M393.8,344.9l5.068,20.714,13.883,16.528S416.5,359,434.568,344.02s49.583-11.239,54.21-11.018,22.257,20.935,22.257,20.935l-9.7-25.783L477.1,308.1Z" transform="translate(181.999 246.549)" fill="#e28166"/>
    <path id="Path_149" data-name="Path 149" d="M535.845,342.3s-34.157,43.853-65.67,52.668c-27.546,7.713-61.042-1.1-68.975-3.305,10.357,3.526,52.227,20.274,83.74,5.509C508.96,385.712,527.25,358.828,535.845,342.3Z" transform="translate(190.906 287.714)" fill="#e28166"/>
    <path id="Path_150" data-name="Path 150" d="M364.314,219.893l-16.087-7.272a1.528,1.528,0,0,0-2.2.661l-.22.22a1.927,1.927,0,0,0,.661,2.865l16.087,7.052a1.982,1.982,0,0,0,1.763-3.526Z" transform="translate(123.779 131.357)" fill="#fdf5ea"/>
    <rect id="Rectangle_218" data-name="Rectangle 218" width="98.945" height="70.958" transform="translate(599.158 330.976)" fill="#fff"/>
    <rect id="Rectangle_219" data-name="Rectangle 219" width="96.301" height="65.67" transform="translate(599.158 330.976)" fill="#c4ccd7"/>
    <rect id="Rectangle_220" data-name="Rectangle 220" width="98.945" height="70.958" transform="translate(596.073 324.585)" fill="#fff"/>
    <rect id="Rectangle_221" data-name="Rectangle 221" width="98.945" height="70.958" transform="translate(606.909 266.811) rotate(-8.772)" fill="#fff"/>
    <rect id="Rectangle_222" data-name="Rectangle 222" width="96.301" height="65.67" transform="translate(606.853 266.819) rotate(-8.772)" fill="#c4ccd7"/>
    <rect id="Rectangle_223" data-name="Rectangle 223" width="98.945" height="70.958" transform="translate(602.95 261.098) rotate(-8.772)" fill="#fff"/>
    <g id="Group_361" data-name="Group 361" transform="translate(337.566 338.167)">
      <path id="Path_151" data-name="Path 151" d="M286.845,234.078a3.089,3.089,0,0,0,4.187.881l10.137-6.391-3.085-5.068-10.137,6.391A2.958,2.958,0,0,0,286.845,234.078Z" transform="translate(-284.846 -193.45)" fill="#f16a44"/>
      <circle id="Ellipse_42" data-name="Ellipse 42" cx="18.291" cy="18.291" r="18.291" transform="translate(0 25.866) rotate(-45)" fill="#f16a44"/>
      <path id="Path_152" data-name="Path 152" d="M289.8,228.144a14.9,14.9,0,0,1,1.543-5.068,18.9,18.9,0,0,1,2.865-4.407,16.469,16.469,0,0,1,9.255-4.848c.441,0,.881-.22,1.322-.22h2.644a2.8,2.8,0,0,1,1.322.22,13.563,13.563,0,0,1,5.068,1.543,18.9,18.9,0,0,1,4.407,2.865,13.712,13.712,0,0,1,3.085,4.187,18.04,18.04,0,0,0-7.713-6.391,17.025,17.025,0,0,0-18.731,3.526A16.357,16.357,0,0,0,289.8,228.144Z" transform="translate(-280.749 -205.366)" fill="#f8fbfc"/>
      <circle id="Ellipse_43" data-name="Ellipse 43" cx="14.765" cy="14.765" r="14.765" transform="translate(11.034 11.099)" fill="#93603d"/>
      <path id="Path_153" data-name="Path 153" d="M291,230.481a14.677,14.677,0,0,0,28.648-2.2,14.677,14.677,0,0,0-28.648,2.2Z" transform="translate(-279.305 -200.431)" fill="#a4704c"/>
      <g id="Group_360" data-name="Group 360" transform="translate(13.679 16.069)" opacity="0.5">
        <path id="Path_154" data-name="Path 154" d="M308.72,218.654s-.22-.22-.22,0c0,0-.22.22,0,.22a11.68,11.68,0,0,1-9.917,17.85,4.3,4.3,0,0,1-1.763-.22c-.22,0-.22,0-.22.22s0,.22.22.22c.661,0,1.322.22,1.983.22a12.228,12.228,0,0,0,12.12-12.12A21.99,21.99,0,0,0,308.72,218.654Z" transform="translate(-286.243 -215.47)" fill="#f8fbfc"/>
        <path id="Path_155" data-name="Path 155" d="M297.189,217.474s.22-.22,0-.22c0,0-.22-.22-.22,0a12.312,12.312,0,0,0-5.068,9.917,12.1,12.1,0,0,0,3.085,8.154h.441v-.441a11.412,11.412,0,0,1-3.085-7.713A11.7,11.7,0,0,1,297.189,217.474Z" transform="translate(-291.9 -217.156)" fill="#f8fbfc"/>
        <path id="Path_156" data-name="Path 156" d="M301.733,218.341h1.1c.22,0,.22,0,.22-.22s0-.22-.22-.22h-1.1a7.9,7.9,0,0,0-7.933,7.933v1.1a.216.216,0,0,0,.22.22h0a.216.216,0,0,0,.22-.22v-1.1A7.572,7.572,0,0,1,301.733,218.341Z" transform="translate(-289.613 -216.259)" fill="#f8fbfc"/>
        <path id="Path_157" data-name="Path 157" d="M306.6,224.241V223.8h-.441a7.511,7.511,0,0,1-5.509,2.424,7.162,7.162,0,0,1-5.509-2.424H294.7v.441a8.736,8.736,0,0,0,5.95,2.644A7.87,7.87,0,0,0,306.6,224.241Z" transform="translate(-288.53 -209.158)" fill="#f8fbfc"/>
        <path id="Path_158" data-name="Path 158" d="M299.09,218.62a7.565,7.565,0,0,1,4.187,6.831v.661c0,.22,0,.22.22.22h0c.22,0,.22,0,.22-.22v-.661a7.851,7.851,0,0,0-4.407-7.052h-.22C298.87,218.4,298.87,218.62,299.09,218.62Z" transform="translate(-283.444 -215.658)" fill="#f8fbfc"/>
        <path id="Path_159" data-name="Path 159" d="M297.453,226.206a5.934,5.934,0,0,0,5.289-3.085v-.22h-.22a5.743,5.743,0,0,1-4.848,2.865c-.22,0-.22,0-.22.22C297.233,225.985,297.453,226.206,297.453,226.206Z" transform="translate(-285.333 -210.241)" fill="#f8fbfc"/>
        <path id="Path_160" data-name="Path 160" d="M304.355,220.9h.441v-.441a6.153,6.153,0,0,0-4.407-1.763,5.934,5.934,0,0,0-5.289,3.085v.22h.22a.216.216,0,0,0,.22-.22,5.829,5.829,0,0,1,5.068-2.865A10.331,10.331,0,0,1,304.355,220.9Z" transform="translate(-288.048 -215.297)" fill="#f8fbfc"/>
      </g>
    </g>
    <g id="Group_363" data-name="Group 363" transform="translate(616.792 196.225)">
      <path id="Path_161" data-name="Path 161" d="M438.581,146.651a3.065,3.065,0,0,0-4.187,0l-8.594,8.594,4.187,4.187,8.594-8.594A2.7,2.7,0,0,0,438.581,146.651Z" transform="translate(-396.275 -145.003)" fill="#f16a44"/>
      <circle id="Ellipse_44" data-name="Ellipse 44" cx="18.291" cy="18.291" r="18.291" transform="matrix(0.231, -0.973, 0.973, 0.231, 0, 35.597)" fill="#f16a44"/>
      <path id="Path_162" data-name="Path 162" d="M414.8,162.044a14.9,14.9,0,0,1,1.543-5.068,18.9,18.9,0,0,1,2.865-4.407,16.469,16.469,0,0,1,9.256-4.848c.441,0,.881-.22,1.322-.22h2.644a2.794,2.794,0,0,1,1.322.22,13.561,13.561,0,0,1,5.068,1.543,18.9,18.9,0,0,1,4.407,2.865,13.711,13.711,0,0,1,3.085,4.187,18.04,18.04,0,0,0-7.713-6.391,17.025,17.025,0,0,0-18.731,3.526A17.924,17.924,0,0,0,414.8,162.044Z" transform="translate(-409.516 -142.987)" fill="#f8fbfc"/>
      <circle id="Ellipse_45" data-name="Ellipse 45" cx="14.765" cy="14.765" r="14.765" transform="translate(7.268 7.158)" fill="#93603d"/>
      <path id="Path_163" data-name="Path 163" d="M416,164.281a14.677,14.677,0,0,0,28.648-2.2,14.676,14.676,0,0,0-14.1-10.578A15.3,15.3,0,0,0,416,164.281Z" transform="translate(-408.071 -138.172)" fill="#a4704c"/>
      <g id="Group_362" data-name="Group 362" transform="translate(9.912 12.128)" opacity="0.5">
        <path id="Path_164" data-name="Path 164" d="M433.72,152.554s-.22-.22-.22,0c0,0-.22.22,0,.22a11.679,11.679,0,0,1-9.917,17.85,4.3,4.3,0,0,1-1.763-.22c-.22,0-.22,0-.22.22s0,.22.22.22c.661,0,1.322.22,1.983.22a12.228,12.228,0,0,0,12.12-12.12A21.987,21.987,0,0,0,433.72,152.554Z" transform="translate(-411.243 -149.15)" fill="#f8fbfc"/>
        <path id="Path_165" data-name="Path 165" d="M422.189,151.274s.22-.22,0-.22c0,0-.22-.22-.22,0a12.312,12.312,0,0,0-5.068,9.917,12.1,12.1,0,0,0,3.085,8.154h.441v-.441a11.412,11.412,0,0,1-3.085-7.713A11.7,11.7,0,0,1,422.189,151.274Z" transform="translate(-416.9 -150.956)" fill="#f8fbfc"/>
        <path id="Path_166" data-name="Path 166" d="M426.733,152.241h1.1c.22,0,.22,0,.22-.22s0-.22-.22-.22h-1.1a7.9,7.9,0,0,0-7.933,7.933v1.1a.216.216,0,0,0,.22.22h0a.216.216,0,0,0,.22-.22v-1.1A7.572,7.572,0,0,1,426.733,152.241Z" transform="translate(-414.613 -149.939)" fill="#f8fbfc"/>
        <path id="Path_167" data-name="Path 167" d="M431.6,158.141V157.7h-.441a7.511,7.511,0,0,1-5.509,2.424,7.162,7.162,0,0,1-5.509-2.424H419.7v.441a8.736,8.736,0,0,0,5.95,2.644A7.87,7.87,0,0,0,431.6,158.141Z" transform="translate(-413.53 -142.837)" fill="#f8fbfc"/>
        <path id="Path_168" data-name="Path 168" d="M424.09,152.52a7.565,7.565,0,0,1,4.187,6.831v.661c0,.22,0,.22.22.22h0c.22,0,.22,0,.22-.22v-.661a7.851,7.851,0,0,0-4.407-7.052h-.22C423.87,152.3,423.87,152.52,424.09,152.52Z" transform="translate(-408.444 -149.337)" fill="#f8fbfc"/>
        <path id="Path_169" data-name="Path 169" d="M422.454,160.106a5.934,5.934,0,0,0,5.289-3.085v-.22h-.22a5.743,5.743,0,0,1-4.848,2.865c-.22,0-.22,0-.22.22C422.233,159.885,422.454,160.106,422.454,160.106Z" transform="translate(-410.333 -143.921)" fill="#f8fbfc"/>
        <path id="Path_170" data-name="Path 170" d="M429.355,154.8h.441v-.441a6.153,6.153,0,0,0-4.407-1.763,5.934,5.934,0,0,0-5.289,3.085v.22h.22a.216.216,0,0,0,.22-.22,5.829,5.829,0,0,1,5.068-2.865A7.8,7.8,0,0,1,429.355,154.8Z" transform="translate(-413.048 -148.976)" fill="#f8fbfc"/>
      </g>
    </g>
    <g id="Group_365" data-name="Group 365" transform="translate(694.128 451.114)">
      <path id="Path_171" data-name="Path 171" d="M470.078,290.324a3.09,3.09,0,0,0,.881-4.187L464.568,276l-5.068,3.085,6.391,10.137A3,3,0,0,0,470.078,290.324Z" transform="translate(-433.047 -243.203)" fill="#f16a44"/>
      <circle id="Ellipse_46" data-name="Ellipse 46" cx="18.291" cy="18.291" r="18.291" transform="matrix(0.231, -0.973, 0.973, 0.231, 0, 35.597)" fill="#f16a44"/>
      <path id="Path_172" data-name="Path 172" d="M449.9,277.744a14.9,14.9,0,0,1,1.543-5.068,18.9,18.9,0,0,1,2.865-4.407,16.469,16.469,0,0,1,9.255-4.848c.441,0,.881-.22,1.322-.22h2.644a2.8,2.8,0,0,1,1.322.22,13.56,13.56,0,0,1,5.068,1.543,18.9,18.9,0,0,1,4.407,2.865,13.712,13.712,0,0,1,3.085,4.187,18.039,18.039,0,0,0-7.713-6.391,17.025,17.025,0,0,0-18.731,3.526A14.388,14.388,0,0,0,449.9,277.744Z" transform="translate(-444.603 -258.61)" fill="#f8fbfc"/>
      <circle id="Ellipse_47" data-name="Ellipse 47" cx="14.765" cy="14.765" r="14.765" transform="translate(7.281 7.234)" fill="#93603d"/>
      <path id="Path_173" data-name="Path 173" d="M451.1,279.981a14.677,14.677,0,0,0,28.648-2.2,14.676,14.676,0,0,0-14.1-10.578A14.938,14.938,0,0,0,451.1,279.981Z" transform="translate(-443.158 -253.796)" fill="#a4704c"/>
      <g id="Group_364" data-name="Group 364" transform="translate(9.925 12.205)" opacity="0.5">
        <path id="Path_174" data-name="Path 174" d="M468.82,268.254s-.22-.22-.22,0c0,0-.22.22,0,.22a11.679,11.679,0,0,1-9.917,17.85,4.3,4.3,0,0,1-1.763-.22c-.22,0-.22,0-.22.22s0,.22.22.22c.661,0,1.322.22,1.983.22a12.228,12.228,0,0,0,12.12-12.12A21.992,21.992,0,0,0,468.82,268.254Z" transform="translate(-446.343 -264.85)" fill="#f8fbfc"/>
        <path id="Path_175" data-name="Path 175" d="M457.289,266.974s.22-.22,0-.22c0,0-.22-.22-.22,0A12.312,12.312,0,0,0,452,276.67a12.1,12.1,0,0,0,3.085,8.154h.441v-.441a11.412,11.412,0,0,1-3.085-7.713A11.7,11.7,0,0,1,457.289,266.974Z" transform="translate(-452 -266.656)" fill="#f8fbfc"/>
        <path id="Path_176" data-name="Path 176" d="M461.833,267.941h1.1c.22,0,.22,0,.22-.22s0-.22-.22-.22h-1.1a7.9,7.9,0,0,0-7.933,7.933v1.1a.216.216,0,0,0,.22.22h0a.216.216,0,0,0,.22-.22v-1.1A7.431,7.431,0,0,1,461.833,267.941Z" transform="translate(-449.713 -265.639)" fill="#f8fbfc"/>
        <path id="Path_177" data-name="Path 177" d="M466.7,273.841V273.4h-.441a7.51,7.51,0,0,1-5.509,2.424,7.162,7.162,0,0,1-5.509-2.424H454.8v.441a8.016,8.016,0,0,0,11.9,0Z" transform="translate(-448.63 -258.537)" fill="#f8fbfc"/>
        <path id="Path_178" data-name="Path 178" d="M459,268.22a7.565,7.565,0,0,1,4.187,6.831v.661c0,.22,0,.22.22.22h0c.22,0,.22,0,.22-.22v-.661A7.851,7.851,0,0,0,459.22,268H459Z" transform="translate(-443.574 -265.037)" fill="#f8fbfc"/>
        <path id="Path_179" data-name="Path 179" d="M457.59,275.806a5.934,5.934,0,0,0,5.289-3.085v-.22h-.22a5.743,5.743,0,0,1-4.848,2.865c-.22,0-.22,0-.22.22C457.37,275.585,457.37,275.806,457.59,275.806Z" transform="translate(-445.47 -259.621)" fill="#f8fbfc"/>
        <path id="Path_180" data-name="Path 180" d="M464.355,270.5h.441v-.441a6.153,6.153,0,0,0-4.407-1.763,5.934,5.934,0,0,0-5.289,3.085v.22h.22a.216.216,0,0,0,.22-.22,5.829,5.829,0,0,1,5.068-2.865A6.945,6.945,0,0,1,464.355,270.5Z" transform="translate(-448.269 -264.676)" fill="#f8fbfc"/>
      </g>
    </g>
    <path id="Path_181" data-name="Path 181" d="M310.711,311.452c-.441-.881-2.865-1.322-5.289-1.543-9.035-16.748-31.953-17.409-31.953-17.409s-1.763,7.272,7.933,19.172,9.7,35.479,9.7,35.479a42.754,42.754,0,0,0,10.357-8.374c4.407-4.848,8.594-11.9,6.831-21.155C309.609,315.2,311.151,312.333,310.711,311.452Z" transform="translate(37.008 227.771)" fill="#fad1b1"/>
    <path id="Path_182" data-name="Path 182" d="M412.087,314.28l-2.2-8.154a4.37,4.37,0,0,0-4.848-3.085l-28.648,3.746a4.4,4.4,0,0,0-3.746,5.289l2.2,8.815a4.392,4.392,0,0,0,4.848,3.306l28.868-4.407A4.209,4.209,0,0,0,412.087,314.28Z" transform="translate(156.44 240.368)" fill="#f9e1df"/>
    <path id="Path_183" data-name="Path 183" d="M414.994,308.46l6.611,5.289a4.355,4.355,0,0,0,5.73-.22l21.155-19.613a4.176,4.176,0,0,0-.22-6.391l-7.052-5.95a4.41,4.41,0,0,0-5.95.22l-20.715,20.274A4.349,4.349,0,0,0,414.994,308.46Z" transform="translate(205.54 213.354)" fill="#f9e1df"/>
  </g>
</svg>
